<?xml version="1.0" encoding="UTF-8" standalone="no"?>
<!-- Created with Inkscape (http://www.inkscape.org/) -->

<svg
   width="250"
   height="250"
   viewBox="0 0 66.145834 66.145834"
   version="1.1"
   id="svg1"
   inkscape:version="1.3.2 (091e20e, 2023-11-25, custom)"
   sodipodi:docname="ucf-picto-education.svg"
   xmlns:inkscape="http://www.inkscape.org/namespaces/inkscape"
   xmlns:sodipodi="http://sodipodi.sourceforge.net/DTD/sodipodi-0.dtd"
   xmlns="http://www.w3.org/2000/svg"
   xmlns:svg="http://www.w3.org/2000/svg">
  <sodipodi:namedview
     id="namedview1"
     pagecolor="#ffffff"
     bordercolor="#000000"
     borderopacity="0.25"
     inkscape:showpageshadow="2"
     inkscape:pageopacity="0.0"
     inkscape:pagecheckerboard="0"
     inkscape:deskcolor="#d1d1d1"
     inkscape:document-units="mm"
     inkscape:zoom="2.0494792"
     inkscape:cx="124.17789"
     inkscape:cy="126.1296"
     inkscape:window-width="1920"
     inkscape:window-height="1001"
     inkscape:window-x="-9"
     inkscape:window-y="-9"
     inkscape:window-maximized="1"
     inkscape:current-layer="layer1" />
  <defs
     id="defs1">
    <clipPath
       clipPathUnits="userSpaceOnUse"
       id="clipPath2">
      <path
         d="m 85.039,50.053 h 448.58 v 729.21 H 85.039 Z"
         transform="translate(-110.6983,-641.71262)"
         id="path2" />
    </clipPath>
    <clipPath
       clipPathUnits="userSpaceOnUse"
       id="clipPath4">
      <path
         d="m 85.039,50.053 h 448.58 v 729.21 H 85.039 Z"
         transform="translate(-121.1752,-650.02372)"
         id="path4" />
    </clipPath>
    <clipPath
       clipPathUnits="userSpaceOnUse"
       id="clipPath6">
      <path
         d="m 85.039,50.053 h 448.58 v 729.21 H 85.039 Z"
         transform="translate(-108.3042,-652.77142)"
         id="path6" />
    </clipPath>
    <clipPath
       clipPathUnits="userSpaceOnUse"
       id="clipPath8">
      <path
         d="m 85.039,50.053 h 448.58 v 729.21 H 85.039 Z"
         transform="translate(-138.5013,-655.04081)"
         id="path8" />
    </clipPath>
    <clipPath
       clipPathUnits="userSpaceOnUse"
       id="clipPath10">
      <path
         d="m 85.039,50.053 h 448.58 v 729.21 H 85.039 Z"
         transform="translate(-88.458805,-650.69342)"
         id="path10" />
    </clipPath>
    <clipPath
       clipPathUnits="userSpaceOnUse"
       id="clipPath12">
      <path
         d="m 85.039,50.053 h 448.58 v 729.21 H 85.039 Z"
         transform="translate(-113.4223,-639.72472)"
         id="path12" />
    </clipPath>
    <clipPath
       clipPathUnits="userSpaceOnUse"
       id="clipPath2-3">
      <path
         d="M 58.11,52.887 H 554.321 V 267.216 H 58.11 Z"
         transform="translate(-238.60401,-224.7877)"
         id="path2-8" />
    </clipPath>
    <clipPath
       clipPathUnits="userSpaceOnUse"
       id="clipPath4-9">
      <path
         d="M 58.11,52.887 H 554.321 V 267.216 H 58.11 Z"
         transform="translate(-241.82601,-257.74371)"
         id="path4-4" />
    </clipPath>
    <clipPath
       clipPathUnits="userSpaceOnUse"
       id="clipPath6-9">
      <path
         d="M 58.11,52.887 H 554.321 V 267.216 H 58.11 Z"
         transform="translate(-246.16081,-249.4657)"
         id="path6-1" />
    </clipPath>
    <clipPath
       clipPathUnits="userSpaceOnUse"
       id="clipPath8-1">
      <path
         d="M 58.11,52.887 H 554.321 V 267.216 H 58.11 Z"
         transform="translate(-237.68071,-246.4372)"
         id="path8-6" />
    </clipPath>
    <clipPath
       clipPathUnits="userSpaceOnUse"
       id="clipPath10-5">
      <path
         d="M 58.11,52.887 H 554.321 V 267.216 H 58.11 Z"
         transform="translate(-237.72171,-233.68161)"
         id="path10-2" />
    </clipPath>
    <clipPath
       clipPathUnits="userSpaceOnUse"
       id="clipPath12-8">
      <path
         d="M 58.11,52.887 H 554.321 V 267.216 H 58.11 Z"
         transform="translate(-275.8198,-259.55841)"
         id="path12-2" />
    </clipPath>
    <clipPath
       clipPathUnits="userSpaceOnUse"
       id="clipPath2-2">
      <path
         d="M 58.11,52.887 H 554.321 V 267.216 H 58.11 Z"
         transform="translate(-429.19391,-261.90781)"
         id="path2-87" />
    </clipPath>
    <clipPath
       clipPathUnits="userSpaceOnUse"
       id="clipPath4-6">
      <path
         d="M 58.11,52.887 H 554.321 V 267.216 H 58.11 Z"
         id="path4-8" />
    </clipPath>
    <clipPath
       clipPathUnits="userSpaceOnUse"
       id="clipPath6-4">
      <path
         d="M 58.11,52.887 H 554.321 V 267.216 H 58.11 Z"
         transform="translate(-454.61861,-251.73631)"
         id="path6-5" />
    </clipPath>
    <clipPath
       clipPathUnits="userSpaceOnUse"
       id="clipPath8-4">
      <path
         d="M 58.11,52.887 H 554.321 V 267.216 H 58.11 Z"
         transform="translate(-458.07671,-247.04391)"
         id="path8-9" />
    </clipPath>
    <clipPath
       clipPathUnits="userSpaceOnUse"
       id="clipPath10-6">
      <path
         d="M 58.11,52.887 H 554.321 V 267.216 H 58.11 Z"
         transform="translate(-451.41541,-251.80041)"
         id="path10-0" />
    </clipPath>
    <clipPath
       clipPathUnits="userSpaceOnUse"
       id="clipPath12-87">
      <path
         d="M 58.11,52.887 H 554.321 V 267.216 H 58.11 Z"
         transform="translate(-451.45261,-251.89981)"
         id="path12-9" />
    </clipPath>
    <clipPath
       clipPathUnits="userSpaceOnUse"
       id="clipPath14">
      <path
         d="M 58.11,52.887 H 554.321 V 267.216 H 58.11 Z"
         id="path14" />
    </clipPath>
    <clipPath
       clipPathUnits="userSpaceOnUse"
       id="clipPath16">
      <path
         d="M 58.11,52.887 H 554.321 V 267.216 H 58.11 Z"
         id="path16" />
    </clipPath>
    <clipPath
       clipPathUnits="userSpaceOnUse"
       id="clipPath18">
      <path
         d="M 58.11,52.887 H 554.321 V 267.216 H 58.11 Z"
         id="path18" />
    </clipPath>
    <clipPath
       clipPathUnits="userSpaceOnUse"
       id="clipPath20">
      <path
         d="M 58.11,52.887 H 554.321 V 267.216 H 58.11 Z"
         id="path20" />
    </clipPath>
    <clipPath
       clipPathUnits="userSpaceOnUse"
       id="clipPath22">
      <path
         d="M 58.11,52.887 H 554.321 V 267.216 H 58.11 Z"
         transform="translate(-450.21321,-251.80041)"
         id="path22" />
    </clipPath>
    <clipPath
       clipPathUnits="userSpaceOnUse"
       id="clipPath24">
      <path
         d="M 58.11,52.887 H 554.321 V 267.216 H 58.11 Z"
         transform="translate(-450.17601,-251.89981)"
         id="path24" />
    </clipPath>
    <clipPath
       clipPathUnits="userSpaceOnUse"
       id="clipPath26">
      <path
         d="m 431.148,224.667 h 39.073 v 35.699 h -39.073 z"
         transform="translate(-469.07861,-260.266)"
         id="path26" />
    </clipPath>
    <clipPath
       clipPathUnits="userSpaceOnUse"
       id="clipPath2-8">
      <path
         d="M 58.11,52.887 H 554.321 V 267.216 H 58.11 Z"
         transform="translate(-429.19391,-261.90781)"
         id="path2-1" />
    </clipPath>
    <clipPath
       clipPathUnits="userSpaceOnUse"
       id="clipPath4-4">
      <path
         d="M 58.11,52.887 H 554.321 V 267.216 H 58.11 Z"
         id="path4-0" />
    </clipPath>
    <clipPath
       clipPathUnits="userSpaceOnUse"
       id="clipPath6-0">
      <path
         d="M 58.11,52.887 H 554.321 V 267.216 H 58.11 Z"
         transform="translate(-454.61861,-251.73631)"
         id="path6-58" />
    </clipPath>
    <clipPath
       clipPathUnits="userSpaceOnUse"
       id="clipPath8-3">
      <path
         d="M 58.11,52.887 H 554.321 V 267.216 H 58.11 Z"
         transform="translate(-458.07671,-247.04391)"
         id="path8-61" />
    </clipPath>
    <clipPath
       clipPathUnits="userSpaceOnUse"
       id="clipPath10-2">
      <path
         d="M 58.11,52.887 H 554.321 V 267.216 H 58.11 Z"
         transform="translate(-451.41541,-251.80041)"
         id="path10-5" />
    </clipPath>
    <clipPath
       clipPathUnits="userSpaceOnUse"
       id="clipPath12-1">
      <path
         d="M 58.11,52.887 H 554.321 V 267.216 H 58.11 Z"
         transform="translate(-451.45261,-251.89981)"
         id="path12-0" />
    </clipPath>
    <clipPath
       clipPathUnits="userSpaceOnUse"
       id="clipPath14-4">
      <path
         d="M 58.11,52.887 H 554.321 V 267.216 H 58.11 Z"
         id="path14-3" />
    </clipPath>
    <clipPath
       clipPathUnits="userSpaceOnUse"
       id="clipPath16-0">
      <path
         d="M 58.11,52.887 H 554.321 V 267.216 H 58.11 Z"
         id="path16-7" />
    </clipPath>
    <clipPath
       clipPathUnits="userSpaceOnUse"
       id="clipPath18-3">
      <path
         d="M 58.11,52.887 H 554.321 V 267.216 H 58.11 Z"
         id="path18-7" />
    </clipPath>
    <clipPath
       clipPathUnits="userSpaceOnUse"
       id="clipPath20-5">
      <path
         d="M 58.11,52.887 H 554.321 V 267.216 H 58.11 Z"
         id="path20-9" />
    </clipPath>
    <clipPath
       clipPathUnits="userSpaceOnUse"
       id="clipPath22-3">
      <path
         d="M 58.11,52.887 H 554.321 V 267.216 H 58.11 Z"
         transform="translate(-450.21321,-251.80041)"
         id="path22-3" />
    </clipPath>
    <clipPath
       clipPathUnits="userSpaceOnUse"
       id="clipPath24-5">
      <path
         d="M 58.11,52.887 H 554.321 V 267.216 H 58.11 Z"
         transform="translate(-450.17601,-251.89981)"
         id="path24-9" />
    </clipPath>
    <clipPath
       clipPathUnits="userSpaceOnUse"
       id="clipPath26-4">
      <path
         d="m 431.148,224.667 h 39.073 v 35.699 h -39.073 z"
         transform="translate(-469.07861,-260.266)"
         id="path26-5" />
    </clipPath>
  </defs>
  <g
     inkscape:label="Calque 1"
     inkscape:groupmode="layer"
     id="layer1">
    <g
       id="g1"
       transform="matrix(1.207449,0,0,1.207449,-9.3408705,-4.78193)">
      <path
         id="path25"
         d="m 0,0 c 0,0 -16.083,-9.027 -16.116,-9.027 h -4.575 c -0.207,0 -0.376,0.042 -0.376,0.042 L -36.808,0 c -0.5,0.286 -1.123,-0.076 -1.123,-0.652 v -24.541 c 0,-0.482 0.259,-0.927 0.677,-1.166 l 15.833,-9.038 c 0.158,-0.09 0.523,-0.202 0.73,-0.202 h 4.575 c 0.069,0 0.13,0.024 0.185,0.056 0.003,10e-4 0.005,-0.002 0.007,0 l 16.378,9.184 c 0.426,0.239 0.689,0.684 0.689,1.166 V -0.652 C 1.143,-0.076 0.509,0.286 0,0"
         style="fill:#bfded0;fill-opacity:1;fill-rule:nonzero;stroke:none"
         transform="matrix(1.0590433,0,0,-1.0590433,54.445684,14.072328)"
         clip-path="url(#clipPath26-4)" />
      <path
         id="path1"
         d="m 0,0 c -0.033,0 -0.061,-0.01 -0.082,-0.023 -0.036,-0.022 -0.08,-0.063 -0.08,-0.14 v -28.274 c 0,-0.302 0.163,-0.583 0.426,-0.733 l 17.597,-10.044 v 29.043 L 0.081,-0.023 C 0.051,-0.006 0.025,0 0,0 m 18.292,-40.929 c -0.168,0 -0.335,0.042 -0.485,0.128 l -18.24,10.41 c -0.7,0.4 -1.135,1.149 -1.135,1.954 v 28.274 c 0,0.564 0.292,1.072 0.781,1.356 0.489,0.284 1.074,0.283 1.564,0.005 L 19.266,-9.355 v -30.6 c 0,-0.347 -0.186,-0.67 -0.485,-0.844 -0.151,-0.087 -0.321,-0.13 -0.489,-0.13"
         style="fill:#0d7c41;fill-opacity:1;fill-rule:nonzero;stroke:none"
         transform="matrix(1.0590433,0,0,-1.0590433,12.206057,12.333588)"
         clip-path="url(#clipPath2-8)" />
      <path
         id="path3"
         d="m 448.46,222.185 h 4.732 v 29.209 h -4.732 z m 5.002,-1.404 h -5.271 c -0.627,0 -1.136,0.508 -1.136,1.135 v 29.746 c 0,0.627 0.509,1.135 1.136,1.135 h 5.271 c 0.626,0 1.135,-0.508 1.135,-1.135 v -29.746 c 0,-0.627 -0.509,-1.135 -1.135,-1.135"
         style="fill:#0d7c41;fill-opacity:1;fill-rule:nonzero;stroke:none"
         transform="matrix(1.0590433,0,0,-1.0590433,-442.32889,289.7053)"
         clip-path="url(#clipPath4-4)" />
      <path
         id="path5"
         d="m 0,0 v -29.044 l 17.598,10.046 c 0.263,0.149 0.426,0.431 0.426,0.733 v 28.273 c 0,0.078 -0.044,0.119 -0.08,0.141 -0.038,0.021 -0.096,0.037 -0.162,0.001 z m -0.938,-29.579 c -0.001,0 -0.002,-10e-4 -0.002,-10e-4 z m 0.345,-1.421 -0.424,0.202 c -0.24,0.14 -0.388,0.397 -0.388,0.673 V 0.816 l 18.49,10.554 c 0.49,0.278 1.075,0.278 1.563,-0.006 0.489,-0.284 0.781,-0.791 0.781,-1.356 v -28.273 c 0,-0.805 -0.435,-1.554 -1.134,-1.954 z"
         style="fill:#0d7c41;fill-opacity:1;fill-rule:nonzero;stroke:none"
         transform="matrix(1.0590433,0,0,-1.0590433,39.131917,23.105647)"
         clip-path="url(#clipPath6-0)" />
      <path
         id="path7"
         d="m 0,0 v -2.667 l 10.918,6.102 v 2.667 z m -0.353,-4.322 c -0.184,0 -0.367,0.049 -0.534,0.146 -0.324,0.192 -0.518,0.531 -0.518,0.907 v 3.477 c 0,0.38 0.206,0.732 0.538,0.917 L 10.759,7.623 C 11.088,7.806 11.479,7.8 11.804,7.61 12.129,7.418 12.323,7.08 12.323,6.704 V 3.227 c 0,-0.38 -0.207,-0.732 -0.539,-0.917 L 0.159,-4.187 c -0.161,-0.09 -0.337,-0.135 -0.512,-0.135"
         style="fill:#0d7c41;fill-opacity:1;fill-rule:nonzero;stroke:none"
         transform="matrix(1.0590433,0,0,-1.0590433,42.794195,28.0751)"
         clip-path="url(#clipPath8-3)" />
      <path
         id="path9"
         d="m 0,0 -1.275,0.589 c 0.097,0.211 2.463,5.224 9.515,8.952 6.905,3.652 9.074,3.569 9.308,3.559 l 0.187,-0.017 2.873,-2.03 -0.811,-1.148 -2.525,1.785 C 16.7,11.628 14.394,11.207 8.897,8.3 2.292,4.808 0.022,0.048 0,0"
         style="fill:#0d7c41;fill-opacity:1;fill-rule:nonzero;stroke:none"
         transform="matrix(1.0590433,0,0,-1.0590433,35.739592,23.03776)"
         clip-path="url(#clipPath10-2)" />
      <path
         id="path11"
         d="m 0,0 -1.35,0.39 c 0.059,0.203 1.475,5.008 5.065,8.703 5.021,5.171 8.654,5.966 8.806,5.998 l 0.844,0.174 V 10.924 H 11.96 v 2.502 C 10.675,12.901 8.024,11.514 4.722,8.115 1.384,4.678 0.014,0.047 0,0"
         style="fill:#0d7c41;fill-opacity:1;fill-rule:nonzero;stroke:none"
         transform="matrix(1.0590433,0,0,-1.0590433,35.778988,22.932494)"
         clip-path="url(#clipPath12-1)" />
      <path
         id="path13"
         d="m 453.823,248.204 h -6.162 v 1.404 h 6.162 z"
         style="fill:#0d7c41;fill-opacity:1;fill-rule:nonzero;stroke:none"
         transform="matrix(1.0590433,0,0,-1.0590433,-442.32889,289.7053)"
         clip-path="url(#clipPath14-4)" />
      <path
         id="path15"
         d="m 453.823,245.16 h -6.162 v 1.404 h 6.162 z"
         style="fill:#0d7c41;fill-opacity:1;fill-rule:nonzero;stroke:none"
         transform="matrix(1.0590433,0,0,-1.0590433,-442.32889,289.7053)"
         clip-path="url(#clipPath16-0)" />
      <path
         id="path17"
         d="m 453.823,226.703 h -6.162 v 1.404 h 6.162 z"
         style="fill:#0d7c41;fill-opacity:1;fill-rule:nonzero;stroke:none"
         transform="matrix(1.0590433,0,0,-1.0590433,-442.32889,289.7053)"
         clip-path="url(#clipPath18-3)" />
      <path
         id="path19"
         d="m 453.823,223.66 h -6.162 v 1.404 h 6.162 z"
         style="fill:#0d7c41;fill-opacity:1;fill-rule:nonzero;stroke:none"
         transform="matrix(1.0590433,0,0,-1.0590433,-442.32889,289.7053)"
         clip-path="url(#clipPath20-5)" />
      <path
         id="path21"
         d="m 0,0 c -0.022,0.048 -2.292,4.808 -8.896,8.3 -5.401,2.856 -7.722,3.312 -8.356,3.385 l -2.365,-1.898 -0.88,1.096 2.739,2.197 0.21,0.02 c 0.232,0.009 2.402,0.095 9.308,-3.559 C -1.188,5.813 1.178,0.8 1.275,0.589 Z"
         style="fill:#0d7c41;fill-opacity:1;fill-rule:nonzero;stroke:none"
         transform="matrix(1.0590433,0,0,-1.0590433,34.466413,23.03776)"
         clip-path="url(#clipPath22-3)" />
      <path
         id="path23"
         d="m 0,0 c -0.014,0.047 -1.384,4.678 -4.722,8.115 -3.301,3.398 -5.951,4.786 -7.238,5.311 v -2.502 h -1.405 v 4.341 l 0.844,-0.174 c 0.153,-0.032 3.785,-0.827 8.807,-5.998 3.589,-3.695 5.005,-8.5 5.064,-8.703 z"
         style="fill:#0d7c41;fill-opacity:1;fill-rule:nonzero;stroke:none"
         transform="matrix(1.0590433,0,0,-1.0590433,34.427016,22.932494)"
         clip-path="url(#clipPath24-5)" />
    </g>
  </g>
</svg>
