<?xml version="1.0" encoding="UTF-8" standalone="no"?>
<!-- Created with Inkscape (http://www.inkscape.org/) -->

<svg
   width="250"
   height="250"
   viewBox="0 0 66.145834 66.145834"
   version="1.1"
   id="svg1"
   inkscape:version="1.3.2 (091e20e, 2023-11-25, custom)"
   sodipodi:docname="ucf-picto-eau.svg"
   xmlns:inkscape="http://www.inkscape.org/namespaces/inkscape"
   xmlns:sodipodi="http://sodipodi.sourceforge.net/DTD/sodipodi-0.dtd"
   xmlns="http://www.w3.org/2000/svg"
   xmlns:svg="http://www.w3.org/2000/svg">
  <sodipodi:namedview
     id="namedview1"
     pagecolor="#ffffff"
     bordercolor="#000000"
     borderopacity="0.25"
     inkscape:showpageshadow="2"
     inkscape:pageopacity="0.0"
     inkscape:pagecheckerboard="0"
     inkscape:deskcolor="#d1d1d1"
     inkscape:document-units="mm"
     inkscape:zoom="2.0494792"
     inkscape:cx="124.66582"
     inkscape:cy="125.64168"
     inkscape:window-width="1920"
     inkscape:window-height="1001"
     inkscape:window-x="-9"
     inkscape:window-y="-9"
     inkscape:window-maximized="1"
     inkscape:current-layer="layer1" />
  <defs
     id="defs1">
    <clipPath
       clipPathUnits="userSpaceOnUse"
       id="clipPath2">
      <path
         d="m 85.039,50.053 h 448.58 v 729.21 H 85.039 Z"
         transform="translate(-110.6983,-641.71262)"
         id="path2" />
    </clipPath>
    <clipPath
       clipPathUnits="userSpaceOnUse"
       id="clipPath4">
      <path
         d="m 85.039,50.053 h 448.58 v 729.21 H 85.039 Z"
         transform="translate(-121.1752,-650.02372)"
         id="path4" />
    </clipPath>
    <clipPath
       clipPathUnits="userSpaceOnUse"
       id="clipPath6">
      <path
         d="m 85.039,50.053 h 448.58 v 729.21 H 85.039 Z"
         transform="translate(-108.3042,-652.77142)"
         id="path6" />
    </clipPath>
    <clipPath
       clipPathUnits="userSpaceOnUse"
       id="clipPath8">
      <path
         d="m 85.039,50.053 h 448.58 v 729.21 H 85.039 Z"
         transform="translate(-138.5013,-655.04081)"
         id="path8" />
    </clipPath>
    <clipPath
       clipPathUnits="userSpaceOnUse"
       id="clipPath10">
      <path
         d="m 85.039,50.053 h 448.58 v 729.21 H 85.039 Z"
         transform="translate(-88.458805,-650.69342)"
         id="path10" />
    </clipPath>
    <clipPath
       clipPathUnits="userSpaceOnUse"
       id="clipPath12">
      <path
         d="m 85.039,50.053 h 448.58 v 729.21 H 85.039 Z"
         transform="translate(-113.4223,-639.72472)"
         id="path12" />
    </clipPath>
    <clipPath
       clipPathUnits="userSpaceOnUse"
       id="clipPath2-3">
      <path
         d="M 58.11,52.887 H 554.321 V 267.216 H 58.11 Z"
         transform="translate(-238.60401,-224.7877)"
         id="path2-8" />
    </clipPath>
    <clipPath
       clipPathUnits="userSpaceOnUse"
       id="clipPath4-9">
      <path
         d="M 58.11,52.887 H 554.321 V 267.216 H 58.11 Z"
         transform="translate(-241.82601,-257.74371)"
         id="path4-4" />
    </clipPath>
    <clipPath
       clipPathUnits="userSpaceOnUse"
       id="clipPath6-9">
      <path
         d="M 58.11,52.887 H 554.321 V 267.216 H 58.11 Z"
         transform="translate(-246.16081,-249.4657)"
         id="path6-1" />
    </clipPath>
    <clipPath
       clipPathUnits="userSpaceOnUse"
       id="clipPath8-1">
      <path
         d="M 58.11,52.887 H 554.321 V 267.216 H 58.11 Z"
         transform="translate(-237.68071,-246.4372)"
         id="path8-6" />
    </clipPath>
    <clipPath
       clipPathUnits="userSpaceOnUse"
       id="clipPath10-5">
      <path
         d="M 58.11,52.887 H 554.321 V 267.216 H 58.11 Z"
         transform="translate(-237.72171,-233.68161)"
         id="path10-2" />
    </clipPath>
    <clipPath
       clipPathUnits="userSpaceOnUse"
       id="clipPath12-8">
      <path
         d="M 58.11,52.887 H 554.321 V 267.216 H 58.11 Z"
         transform="translate(-275.8198,-259.55841)"
         id="path12-2" />
    </clipPath>
    <clipPath
       clipPathUnits="userSpaceOnUse"
       id="clipPath2-2">
      <path
         d="M 58.11,52.887 H 554.321 V 267.216 H 58.11 Z"
         transform="translate(-429.19391,-261.90781)"
         id="path2-87" />
    </clipPath>
    <clipPath
       clipPathUnits="userSpaceOnUse"
       id="clipPath4-6">
      <path
         d="M 58.11,52.887 H 554.321 V 267.216 H 58.11 Z"
         id="path4-8" />
    </clipPath>
    <clipPath
       clipPathUnits="userSpaceOnUse"
       id="clipPath6-4">
      <path
         d="M 58.11,52.887 H 554.321 V 267.216 H 58.11 Z"
         transform="translate(-454.61861,-251.73631)"
         id="path6-5" />
    </clipPath>
    <clipPath
       clipPathUnits="userSpaceOnUse"
       id="clipPath8-4">
      <path
         d="M 58.11,52.887 H 554.321 V 267.216 H 58.11 Z"
         transform="translate(-458.07671,-247.04391)"
         id="path8-9" />
    </clipPath>
    <clipPath
       clipPathUnits="userSpaceOnUse"
       id="clipPath10-6">
      <path
         d="M 58.11,52.887 H 554.321 V 267.216 H 58.11 Z"
         transform="translate(-451.41541,-251.80041)"
         id="path10-0" />
    </clipPath>
    <clipPath
       clipPathUnits="userSpaceOnUse"
       id="clipPath12-87">
      <path
         d="M 58.11,52.887 H 554.321 V 267.216 H 58.11 Z"
         transform="translate(-451.45261,-251.89981)"
         id="path12-9" />
    </clipPath>
    <clipPath
       clipPathUnits="userSpaceOnUse"
       id="clipPath14">
      <path
         d="M 58.11,52.887 H 554.321 V 267.216 H 58.11 Z"
         id="path14" />
    </clipPath>
    <clipPath
       clipPathUnits="userSpaceOnUse"
       id="clipPath16">
      <path
         d="M 58.11,52.887 H 554.321 V 267.216 H 58.11 Z"
         id="path16" />
    </clipPath>
    <clipPath
       clipPathUnits="userSpaceOnUse"
       id="clipPath18">
      <path
         d="M 58.11,52.887 H 554.321 V 267.216 H 58.11 Z"
         id="path18" />
    </clipPath>
    <clipPath
       clipPathUnits="userSpaceOnUse"
       id="clipPath20">
      <path
         d="M 58.11,52.887 H 554.321 V 267.216 H 58.11 Z"
         id="path20" />
    </clipPath>
    <clipPath
       clipPathUnits="userSpaceOnUse"
       id="clipPath22">
      <path
         d="M 58.11,52.887 H 554.321 V 267.216 H 58.11 Z"
         transform="translate(-450.21321,-251.80041)"
         id="path22" />
    </clipPath>
    <clipPath
       clipPathUnits="userSpaceOnUse"
       id="clipPath24">
      <path
         d="M 58.11,52.887 H 554.321 V 267.216 H 58.11 Z"
         transform="translate(-450.17601,-251.89981)"
         id="path24" />
    </clipPath>
    <clipPath
       clipPathUnits="userSpaceOnUse"
       id="clipPath26">
      <path
         d="m 431.148,224.667 h 39.073 v 35.699 h -39.073 z"
         transform="translate(-469.07861,-260.266)"
         id="path26" />
    </clipPath>
    <clipPath
       clipPathUnits="userSpaceOnUse"
       id="clipPath2-8">
      <path
         d="M 58.11,52.887 H 554.321 V 267.216 H 58.11 Z"
         transform="translate(-429.19391,-261.90781)"
         id="path2-1" />
    </clipPath>
    <clipPath
       clipPathUnits="userSpaceOnUse"
       id="clipPath4-4">
      <path
         d="M 58.11,52.887 H 554.321 V 267.216 H 58.11 Z"
         id="path4-0" />
    </clipPath>
    <clipPath
       clipPathUnits="userSpaceOnUse"
       id="clipPath6-0">
      <path
         d="M 58.11,52.887 H 554.321 V 267.216 H 58.11 Z"
         transform="translate(-454.61861,-251.73631)"
         id="path6-58" />
    </clipPath>
    <clipPath
       clipPathUnits="userSpaceOnUse"
       id="clipPath8-3">
      <path
         d="M 58.11,52.887 H 554.321 V 267.216 H 58.11 Z"
         transform="translate(-458.07671,-247.04391)"
         id="path8-61" />
    </clipPath>
    <clipPath
       clipPathUnits="userSpaceOnUse"
       id="clipPath10-2">
      <path
         d="M 58.11,52.887 H 554.321 V 267.216 H 58.11 Z"
         transform="translate(-451.41541,-251.80041)"
         id="path10-5" />
    </clipPath>
    <clipPath
       clipPathUnits="userSpaceOnUse"
       id="clipPath12-1">
      <path
         d="M 58.11,52.887 H 554.321 V 267.216 H 58.11 Z"
         transform="translate(-451.45261,-251.89981)"
         id="path12-0" />
    </clipPath>
    <clipPath
       clipPathUnits="userSpaceOnUse"
       id="clipPath14-4">
      <path
         d="M 58.11,52.887 H 554.321 V 267.216 H 58.11 Z"
         id="path14-3" />
    </clipPath>
    <clipPath
       clipPathUnits="userSpaceOnUse"
       id="clipPath16-0">
      <path
         d="M 58.11,52.887 H 554.321 V 267.216 H 58.11 Z"
         id="path16-7" />
    </clipPath>
    <clipPath
       clipPathUnits="userSpaceOnUse"
       id="clipPath18-3">
      <path
         d="M 58.11,52.887 H 554.321 V 267.216 H 58.11 Z"
         id="path18-7" />
    </clipPath>
    <clipPath
       clipPathUnits="userSpaceOnUse"
       id="clipPath20-5">
      <path
         d="M 58.11,52.887 H 554.321 V 267.216 H 58.11 Z"
         id="path20-9" />
    </clipPath>
    <clipPath
       clipPathUnits="userSpaceOnUse"
       id="clipPath22-3">
      <path
         d="M 58.11,52.887 H 554.321 V 267.216 H 58.11 Z"
         transform="translate(-450.21321,-251.80041)"
         id="path22-3" />
    </clipPath>
    <clipPath
       clipPathUnits="userSpaceOnUse"
       id="clipPath24-5">
      <path
         d="M 58.11,52.887 H 554.321 V 267.216 H 58.11 Z"
         transform="translate(-450.17601,-251.89981)"
         id="path24-9" />
    </clipPath>
    <clipPath
       clipPathUnits="userSpaceOnUse"
       id="clipPath26-4">
      <path
         d="m 431.148,224.667 h 39.073 v 35.699 h -39.073 z"
         transform="translate(-469.07861,-260.266)"
         id="path26-5" />
    </clipPath>
    <clipPath
       clipPathUnits="userSpaceOnUse"
       id="clipPath2-4">
      <path
         d="M 58.11,52.887 H 554.321 V 267.216 H 58.11 Z"
         transform="translate(-83.482705,-226.00071)"
         id="path2-7" />
    </clipPath>
    <clipPath
       clipPathUnits="userSpaceOnUse"
       id="clipPath4-0">
      <path
         d="M 58.11,52.887 H 554.321 V 267.216 H 58.11 Z"
         transform="translate(-68.866702,-241.27081)"
         id="path4-7" />
    </clipPath>
    <clipPath
       clipPathUnits="userSpaceOnUse"
       id="clipPath6-3">
      <path
         d="M 58.11,52.887 H 554.321 V 267.216 H 58.11 Z"
         transform="translate(-112.04691,-249.8878)"
         id="path6-6" />
    </clipPath>
    <clipPath
       clipPathUnits="userSpaceOnUse"
       id="clipPath2-88">
      <path
         d="m 85.039,50.053 h 448.58 v 729.21 H 85.039 Z"
         transform="translate(-122.6422,-434.64141)"
         id="path2-0" />
    </clipPath>
    <clipPath
       clipPathUnits="userSpaceOnUse"
       id="clipPath4-99">
      <path
         d="m 85.039,50.053 h 448.58 v 729.21 H 85.039 Z"
         transform="translate(-129.3493,-419.22001)"
         id="path4-3" />
    </clipPath>
    <clipPath
       clipPathUnits="userSpaceOnUse"
       id="clipPath6-1">
      <path
         d="m 85.039,50.053 h 448.58 v 729.21 H 85.039 Z"
         id="path6-3" />
    </clipPath>
    <clipPath
       clipPathUnits="userSpaceOnUse"
       id="clipPath8-37">
      <path
         d="m 85.039,50.053 h 448.58 v 729.21 H 85.039 Z"
         id="path8-0" />
    </clipPath>
    <clipPath
       clipPathUnits="userSpaceOnUse"
       id="clipPath10-8">
      <path
         d="m 85.039,50.053 h 448.58 v 729.21 H 85.039 Z"
         transform="translate(-120.8284,-448.90691)"
         id="path10-7" />
    </clipPath>
    <clipPath
       clipPathUnits="userSpaceOnUse"
       id="clipPath12-6">
      <path
         d="m 85.039,50.053 h 448.58 v 729.21 H 85.039 Z"
         transform="translate(-98.4823,-406.53311)"
         id="path12-98" />
    </clipPath>
    <clipPath
       clipPathUnits="userSpaceOnUse"
       id="clipPath14-5">
      <path
         d="m 85.039,50.053 h 448.58 v 729.21 H 85.039 Z"
         transform="translate(-109.741,-435.65251)"
         id="path14-1" />
    </clipPath>
    <clipPath
       clipPathUnits="userSpaceOnUse"
       id="clipPath16-9">
      <path
         d="m 85.039,50.053 h 448.58 v 729.21 H 85.039 Z"
         id="path16-0" />
    </clipPath>
    <clipPath
       clipPathUnits="userSpaceOnUse"
       id="clipPath18-2">
      <path
         d="m 85.039,50.053 h 448.58 v 729.21 H 85.039 Z"
         transform="translate(-122.1945,-434.59691)"
         id="path18-4" />
    </clipPath>
    <clipPath
       clipPathUnits="userSpaceOnUse"
       id="clipPath20-4">
      <path
         d="m 85.039,50.053 h 448.58 v 729.21 H 85.039 Z"
         transform="translate(-109.29321,-439.94891)"
         id="path20-5" />
    </clipPath>
    <clipPath
       clipPathUnits="userSpaceOnUse"
       id="clipPath22-7">
      <path
         d="m 85.039,50.053 h 448.58 v 729.21 H 85.039 Z"
         transform="translate(-110.3008,-439.88091)"
         id="path22-1" />
    </clipPath>
  </defs>
  <g
     inkscape:label="Calque 1"
     inkscape:groupmode="layer"
     id="layer1">
    <g
       id="g22"
       transform="matrix(0.95435431,0,0,0.95435431,-105.82603,-496.16809)">
      <path
         id="path1"
         d="M 0,0 V 0.72 H -8.139 V 0 l 0.462,0.552 c -1.412,1.183 -3.237,1.899 -5.224,1.899 -1.987,0 -3.813,-0.716 -5.225,-1.899 L -17.664,0 v 0.72 h -6.085 c -4.266,0.008 -6.867,-1.867 -8.231,-3.451 -1.8,-2.074 -2.417,-4.604 -2.418,-6.657 0,-0.257 0.01,-0.506 0.028,-0.747 l 0.718,0.055 h -0.72 v -9.688 h 12.759 v 7.729 h 3.871 v 0.72 l -0.47,-0.545 c 1.423,-1.227 3.281,-1.977 5.311,-1.977 2.029,0 3.887,0.75 5.311,1.977 l -0.47,0.545 v -0.72 H 0.72 V 0.72 H 0 V 0 h -0.72 v -10.598 l -7.608,-10e-4 -0.202,-0.174 c -1.178,-1.014 -2.698,-1.628 -4.371,-1.628 -1.673,0 -3.193,0.614 -4.371,1.628 l -0.203,0.174 h -5.578 v -7.729 h -9.879 v 8.276 l -0.002,0.027 c -0.016,0.204 -0.024,0.417 -0.024,0.637 -0.001,1.774 0.544,3.969 2.064,5.712 1.177,1.339 3.306,2.948 7.145,2.956 h 6.347 l 0.2,0.168 c 1.167,0.976 2.661,1.563 4.301,1.563 1.639,0 3.133,-0.587 4.3,-1.563 L -8.4,-0.72 H 0 V 0 h -0.72 z"
         style="fill:#139adf;fill-opacity:1;fill-rule:nonzero;stroke:none"
         transform="matrix(1.3333333,0,0,-1.3333333,163.52293,542.99813)"
         clip-path="url(#clipPath2-88)" />
      <path
         id="path3"
         d="M 0,0 V 0.72 C -1.738,0.718 -3.264,1.148 -4.31,1.94 -5.352,2.737 -5.977,3.85 -5.987,5.507 v 7.962 c 0.01,1.657 0.635,2.77 1.677,3.568 1.046,0.791 2.572,1.221 4.31,1.219 v 0.72 H -0.72 V 0 H 0 V 0.72 0 H 0.72 V 19.697 H 0 c -1.966,-0.002 -3.794,-0.473 -5.176,-1.51 -1.385,-1.03 -2.262,-2.67 -2.251,-4.718 V 5.507 C -7.438,3.46 -6.561,1.819 -5.176,0.789 -3.794,-0.247 -1.966,-0.719 0,-0.72 H 0.72 V 0 Z"
         style="fill:#139adf;fill-opacity:1;fill-rule:nonzero;stroke:none"
         transform="matrix(1.3333333,0,0,-1.3333333,172.46573,563.56)"
         clip-path="url(#clipPath4-99)" />
      <path
         id="path5"
         d="m 109.557,441.301 h -1.44 v -4.929 h 1.44 z"
         style="fill:#139adf;fill-opacity:1;fill-rule:nonzero;stroke:none"
         transform="matrix(1.3333333,0,0,-1.3333333,0,1122.52)"
         clip-path="url(#clipPath6-1)" />
      <path
         id="path7"
         d="m 111.741,441.301 h -1.44 v -4.929 h 1.44 z"
         style="fill:#139adf;fill-opacity:1;fill-rule:nonzero;stroke:none"
         transform="matrix(1.3333333,0,0,-1.3333333,0,1122.52)"
         clip-path="url(#clipPath8-37)" />
      <path
         id="path9"
         d="m 0,0 v 0.72 c -1.729,0 -3.227,-0.989 -3.961,-2.428 l 0.641,-0.328 v 0.72 h -4.446 v -0.72 l 0.637,0.334 c -0.743,1.423 -2.229,2.413 -3.959,2.413 -1.729,0 -3.215,-0.99 -3.958,-2.413 l 0.637,-0.334 v 0.72 h -4.335 v -0.72 l 0.642,0.328 c -0.735,1.439 -2.232,2.428 -3.962,2.428 -2.458,0 -4.449,-1.992 -4.45,-4.45 10e-4,-2.458 1.992,-4.45 4.45,-4.45 1.73,0 3.227,0.99 3.962,2.428 l -0.642,0.328 v -0.72 h 4.289 v 0.72 l -0.646,-0.318 c 0.726,-1.48 2.243,-2.515 4.013,-2.515 1.771,0 3.288,1.035 4.014,2.515 l -0.646,0.318 v -0.72 h 4.4 v 0.72 L -3.961,-5.752 C -3.227,-7.19 -1.729,-8.18 0,-8.18 c 2.458,0 4.45,1.992 4.45,4.45 0,2.458 -1.992,4.45 -4.45,4.45 V 0 -0.72 C 1.662,-0.723 3.007,-2.068 3.01,-3.73 3.007,-5.392 1.662,-6.737 0,-6.74 c -1.169,0 -2.179,0.667 -2.679,1.644 l -0.201,0.392 h -5.288 l -0.198,-0.402 c -0.501,-1.014 -1.525,-1.711 -2.722,-1.711 -1.196,0 -2.22,0.697 -2.721,1.711 l -0.198,0.402 h -5.177 l -0.201,-0.392 c -0.5,-0.977 -1.509,-1.644 -2.679,-1.644 -1.662,0.003 -3.007,1.348 -3.01,3.01 0.003,1.662 1.348,3.007 3.01,3.01 1.17,0 2.179,-0.667 2.679,-1.644 l 0.201,-0.392 h 5.211 l 0.202,0.386 c 0.515,0.977 1.516,1.642 2.683,1.642 1.168,0 2.169,-0.665 2.684,-1.642 l 0.202,-0.386 h 5.322 l 0.201,0.392 c 0.5,0.977 1.509,1.644 2.679,1.644 z"
         style="fill:#139adf;fill-opacity:1;fill-rule:nonzero;stroke:none"
         transform="matrix(1.3333333,0,0,-1.3333333,161.10453,523.97747)"
         clip-path="url(#clipPath10-8)" />
      <path
         id="path11"
         d="m 0,0 h -0.72 c -0.003,-1.53 -1.241,-2.768 -2.771,-2.77 -1.529,0.002 -2.767,1.24 -2.77,2.77 -0.009,0.27 0.163,0.844 0.472,1.464 0.458,0.939 1.177,2.02 1.778,2.851 0.3,0.417 0.571,0.772 0.766,1.022 0.195,0.251 0.311,0.392 0.311,0.392 L -3.491,6.185 -4.047,5.729 c 0,0 0.05,-0.061 0.143,-0.178 C -3.58,5.142 -2.756,4.078 -2.028,2.93 -1.663,2.357 -1.323,1.763 -1.084,1.233 -0.841,0.708 -0.714,0.235 -0.72,0 H 0 0.72 C 0.711,0.694 0.447,1.375 0.102,2.096 -0.944,4.227 -2.919,6.619 -2.934,6.642 L -3.491,7.321 -4.047,6.642 C -4.056,6.631 -4.939,5.554 -5.834,4.216 -6.282,3.546 -6.733,2.811 -7.083,2.096 -7.428,1.375 -7.692,0.694 -7.701,0 c 0,-2.326 1.885,-4.21 4.21,-4.211 2.326,0.001 4.21,1.885 4.211,4.211 z"
         style="fill:#139adf;fill-opacity:1;fill-rule:nonzero;stroke:none"
         transform="matrix(1.3333333,0,0,-1.3333333,131.30973,580.47587)"
         clip-path="url(#clipPath12-6)" />
      <path
         id="path13"
         d="m 0,0 c -1.639,0 -3.134,-0.587 -4.3,-1.563 l -0.201,-0.168 h -6.347 c -3.839,-0.009 -5.968,-1.617 -7.145,-2.956 -1.519,-1.743 -2.065,-3.938 -2.064,-5.712 0,-0.221 0.008,-0.434 0.024,-0.637 l 0.002,-0.028 v -5.419 h 9.879 v 4.873 h 0.272 v 2.857 h 4.591 c 1.301,-1.121 2.99,-1.802 4.841,-1.802 1.852,0 3.541,0.681 4.841,1.802 h 7.788 v 5.79 0.072 1.16 H 4.501 L 4.3,-1.563 C 3.134,-0.587 1.639,0 0,0 M 2,3.883 V 1.192 C 3.115,0.909 4.14,0.397 5.018,-0.291 h 7.435 V 2.565 H 4.315 C 3.635,3.134 2.853,3.584 2,3.883 m -3.625,0.32 C -2.976,3.988 -4.206,3.406 -5.21,2.565 h -6.086 c -4.052,0 -6.417,-1.741 -7.688,-3.203 -1.866,-2.146 -2.368,-4.867 -2.214,-6.877 v -0.391 c 0.341,1.415 1.002,2.877 2.119,4.164 1.361,1.581 3.953,3.451 8.203,3.451 h 0.028 5.83 c 0.976,0.764 2.132,1.312 3.393,1.568 z m 1.44,0.089 V 1.438 C -0.123,1.439 -0.062,1.44 0,1.44 H 0.002 C 0.189,1.44 0.375,1.434 0.56,1.421 V 4.229 C 0.315,4.262 0.067,4.283 -0.185,4.292"
         style="fill:#c1ebf1;fill-opacity:1;fill-rule:nonzero;stroke:none"
         transform="matrix(1.3333333,0,0,-1.3333333,146.32133,541.65)"
         clip-path="url(#clipPath14-5)" />
      <path
         id="path15"
         d="M 99.862,424.042 H 99.59 v -4.873 h 0.272 z m 9.881,13.05 h -10e-4 c -0.062,0 -0.124,-10e-4 -0.185,-0.002 v -0.718 h -1.44 v 0.557 c -1.261,-0.256 -2.418,-0.804 -3.393,-1.568 h -5.83 -0.029 c -4.249,0 -6.842,-1.871 -8.203,-3.451 -1.116,-1.287 -1.778,-2.749 -2.119,-4.165 v -8.576 h 1.168 v 5.419 l -0.002,0.027 c -0.016,0.204 -0.024,0.417 -0.024,0.638 -0.001,1.773 0.544,3.969 2.064,5.712 1.176,1.339 3.306,2.947 7.145,2.956 h 6.346 l 0.201,0.168 c 1.167,0.976 2.661,1.562 4.301,1.563 1.639,-10e-4 3.133,-0.587 4.3,-1.563 l 0.2,-0.168 h 7.681 v -1.16 c 0.003,0.657 0.098,1.271 0.272,1.835 v 0.045 h -0.272 0.272 v 0.72 h -7.436 c -0.878,0.688 -1.902,1.2 -3.018,1.483 v -0.472 h -1.44 v 0.701 c -0.184,0.013 -0.37,0.019 -0.558,0.019"
         style="fill:#1398de;fill-opacity:1;fill-rule:nonzero;stroke:none"
         transform="matrix(1.3333333,0,0,-1.3333333,0,1122.52)"
         clip-path="url(#clipPath16-9)" />
      <path
         id="path17"
         d="m 0,0 c -0.174,-0.565 -0.269,-1.179 -0.272,-1.835 v -0.073 -5.79 H 0 Z"
         style="fill:#1398de;fill-opacity:1;fill-rule:nonzero;stroke:none"
         transform="matrix(1.3333333,0,0,-1.3333333,162.926,543.05747)"
         clip-path="url(#clipPath18-2)" />
      <path
         id="path19"
         d="m 0,0 c -0.401,0 -0.794,-0.032 -1.177,-0.093 v -2.926 -0.558 h 1.44 v 0.718 2.854 C 0.176,-0.002 0.088,0 0,0"
         style="fill:#1398de;fill-opacity:1;fill-rule:nonzero;stroke:none"
         transform="matrix(1.3333333,0,0,-1.3333333,145.72427,535.92147)"
         clip-path="url(#clipPath20-4)" />
      <path
         id="path21"
         d="m 0,0 v -2.808 -0.701 h 1.44 v 0.472 2.691 C 0.979,-0.185 0.497,-0.068 0,0"
         style="fill:#1398de;fill-opacity:1;fill-rule:nonzero;stroke:none"
         transform="matrix(1.3333333,0,0,-1.3333333,147.06773,536.01213)"
         clip-path="url(#clipPath22-7)" />
    </g>
  </g>
</svg>
