<?xml version="1.0" encoding="UTF-8" standalone="no"?>
<!-- Created with Inkscape (http://www.inkscape.org/) -->

<svg
   width="250"
   height="250"
   viewBox="0 0 66.145834 66.145834"
   version="1.1"
   id="svg1"
   inkscape:version="1.3.2 (091e20e, 2023-11-25, custom)"
   sodipodi:docname="ucf-picto-alimentation.svg"
   xmlns:inkscape="http://www.inkscape.org/namespaces/inkscape"
   xmlns:sodipodi="http://sodipodi.sourceforge.net/DTD/sodipodi-0.dtd"
   xmlns="http://www.w3.org/2000/svg"
   xmlns:svg="http://www.w3.org/2000/svg">
  <sodipodi:namedview
     id="namedview1"
     pagecolor="#ffffff"
     bordercolor="#000000"
     borderopacity="0.25"
     inkscape:showpageshadow="2"
     inkscape:pageopacity="0.0"
     inkscape:pagecheckerboard="0"
     inkscape:deskcolor="#d1d1d1"
     inkscape:document-units="mm"
     inkscape:zoom="2.0494792"
     inkscape:cx="124.66582"
     inkscape:cy="125.64168"
     inkscape:window-width="1920"
     inkscape:window-height="1001"
     inkscape:window-x="-9"
     inkscape:window-y="-9"
     inkscape:window-maximized="1"
     inkscape:current-layer="layer1" />
  <defs
     id="defs1">
    <clipPath
       clipPathUnits="userSpaceOnUse"
       id="clipPath2">
      <path
         d="m 85.039,50.053 h 448.58 v 729.21 H 85.039 Z"
         transform="translate(-110.6983,-641.71262)"
         id="path2" />
    </clipPath>
    <clipPath
       clipPathUnits="userSpaceOnUse"
       id="clipPath4">
      <path
         d="m 85.039,50.053 h 448.58 v 729.21 H 85.039 Z"
         transform="translate(-121.1752,-650.02372)"
         id="path4" />
    </clipPath>
    <clipPath
       clipPathUnits="userSpaceOnUse"
       id="clipPath6">
      <path
         d="m 85.039,50.053 h 448.58 v 729.21 H 85.039 Z"
         transform="translate(-108.3042,-652.77142)"
         id="path6" />
    </clipPath>
    <clipPath
       clipPathUnits="userSpaceOnUse"
       id="clipPath8">
      <path
         d="m 85.039,50.053 h 448.58 v 729.21 H 85.039 Z"
         transform="translate(-138.5013,-655.04081)"
         id="path8" />
    </clipPath>
    <clipPath
       clipPathUnits="userSpaceOnUse"
       id="clipPath10">
      <path
         d="m 85.039,50.053 h 448.58 v 729.21 H 85.039 Z"
         transform="translate(-88.458805,-650.69342)"
         id="path10" />
    </clipPath>
    <clipPath
       clipPathUnits="userSpaceOnUse"
       id="clipPath12">
      <path
         d="m 85.039,50.053 h 448.58 v 729.21 H 85.039 Z"
         transform="translate(-113.4223,-639.72472)"
         id="path12" />
    </clipPath>
    <clipPath
       clipPathUnits="userSpaceOnUse"
       id="clipPath2-3">
      <path
         d="M 58.11,52.887 H 554.321 V 267.216 H 58.11 Z"
         transform="translate(-238.60401,-224.7877)"
         id="path2-8" />
    </clipPath>
    <clipPath
       clipPathUnits="userSpaceOnUse"
       id="clipPath4-9">
      <path
         d="M 58.11,52.887 H 554.321 V 267.216 H 58.11 Z"
         transform="translate(-241.82601,-257.74371)"
         id="path4-4" />
    </clipPath>
    <clipPath
       clipPathUnits="userSpaceOnUse"
       id="clipPath6-9">
      <path
         d="M 58.11,52.887 H 554.321 V 267.216 H 58.11 Z"
         transform="translate(-246.16081,-249.4657)"
         id="path6-1" />
    </clipPath>
    <clipPath
       clipPathUnits="userSpaceOnUse"
       id="clipPath8-1">
      <path
         d="M 58.11,52.887 H 554.321 V 267.216 H 58.11 Z"
         transform="translate(-237.68071,-246.4372)"
         id="path8-6" />
    </clipPath>
    <clipPath
       clipPathUnits="userSpaceOnUse"
       id="clipPath10-5">
      <path
         d="M 58.11,52.887 H 554.321 V 267.216 H 58.11 Z"
         transform="translate(-237.72171,-233.68161)"
         id="path10-2" />
    </clipPath>
    <clipPath
       clipPathUnits="userSpaceOnUse"
       id="clipPath12-8">
      <path
         d="M 58.11,52.887 H 554.321 V 267.216 H 58.11 Z"
         transform="translate(-275.8198,-259.55841)"
         id="path12-2" />
    </clipPath>
    <clipPath
       clipPathUnits="userSpaceOnUse"
       id="clipPath2-2">
      <path
         d="M 58.11,52.887 H 554.321 V 267.216 H 58.11 Z"
         transform="translate(-429.19391,-261.90781)"
         id="path2-87" />
    </clipPath>
    <clipPath
       clipPathUnits="userSpaceOnUse"
       id="clipPath4-6">
      <path
         d="M 58.11,52.887 H 554.321 V 267.216 H 58.11 Z"
         id="path4-8" />
    </clipPath>
    <clipPath
       clipPathUnits="userSpaceOnUse"
       id="clipPath6-4">
      <path
         d="M 58.11,52.887 H 554.321 V 267.216 H 58.11 Z"
         transform="translate(-454.61861,-251.73631)"
         id="path6-5" />
    </clipPath>
    <clipPath
       clipPathUnits="userSpaceOnUse"
       id="clipPath8-4">
      <path
         d="M 58.11,52.887 H 554.321 V 267.216 H 58.11 Z"
         transform="translate(-458.07671,-247.04391)"
         id="path8-9" />
    </clipPath>
    <clipPath
       clipPathUnits="userSpaceOnUse"
       id="clipPath10-6">
      <path
         d="M 58.11,52.887 H 554.321 V 267.216 H 58.11 Z"
         transform="translate(-451.41541,-251.80041)"
         id="path10-0" />
    </clipPath>
    <clipPath
       clipPathUnits="userSpaceOnUse"
       id="clipPath12-87">
      <path
         d="M 58.11,52.887 H 554.321 V 267.216 H 58.11 Z"
         transform="translate(-451.45261,-251.89981)"
         id="path12-9" />
    </clipPath>
    <clipPath
       clipPathUnits="userSpaceOnUse"
       id="clipPath14">
      <path
         d="M 58.11,52.887 H 554.321 V 267.216 H 58.11 Z"
         id="path14" />
    </clipPath>
    <clipPath
       clipPathUnits="userSpaceOnUse"
       id="clipPath16">
      <path
         d="M 58.11,52.887 H 554.321 V 267.216 H 58.11 Z"
         id="path16" />
    </clipPath>
    <clipPath
       clipPathUnits="userSpaceOnUse"
       id="clipPath18">
      <path
         d="M 58.11,52.887 H 554.321 V 267.216 H 58.11 Z"
         id="path18" />
    </clipPath>
    <clipPath
       clipPathUnits="userSpaceOnUse"
       id="clipPath20">
      <path
         d="M 58.11,52.887 H 554.321 V 267.216 H 58.11 Z"
         id="path20" />
    </clipPath>
    <clipPath
       clipPathUnits="userSpaceOnUse"
       id="clipPath22">
      <path
         d="M 58.11,52.887 H 554.321 V 267.216 H 58.11 Z"
         transform="translate(-450.21321,-251.80041)"
         id="path22" />
    </clipPath>
    <clipPath
       clipPathUnits="userSpaceOnUse"
       id="clipPath24">
      <path
         d="M 58.11,52.887 H 554.321 V 267.216 H 58.11 Z"
         transform="translate(-450.17601,-251.89981)"
         id="path24" />
    </clipPath>
    <clipPath
       clipPathUnits="userSpaceOnUse"
       id="clipPath26">
      <path
         d="m 431.148,224.667 h 39.073 v 35.699 h -39.073 z"
         transform="translate(-469.07861,-260.266)"
         id="path26" />
    </clipPath>
    <clipPath
       clipPathUnits="userSpaceOnUse"
       id="clipPath2-8">
      <path
         d="M 58.11,52.887 H 554.321 V 267.216 H 58.11 Z"
         transform="translate(-429.19391,-261.90781)"
         id="path2-1" />
    </clipPath>
    <clipPath
       clipPathUnits="userSpaceOnUse"
       id="clipPath4-4">
      <path
         d="M 58.11,52.887 H 554.321 V 267.216 H 58.11 Z"
         id="path4-0" />
    </clipPath>
    <clipPath
       clipPathUnits="userSpaceOnUse"
       id="clipPath6-0">
      <path
         d="M 58.11,52.887 H 554.321 V 267.216 H 58.11 Z"
         transform="translate(-454.61861,-251.73631)"
         id="path6-58" />
    </clipPath>
    <clipPath
       clipPathUnits="userSpaceOnUse"
       id="clipPath8-3">
      <path
         d="M 58.11,52.887 H 554.321 V 267.216 H 58.11 Z"
         transform="translate(-458.07671,-247.04391)"
         id="path8-61" />
    </clipPath>
    <clipPath
       clipPathUnits="userSpaceOnUse"
       id="clipPath10-2">
      <path
         d="M 58.11,52.887 H 554.321 V 267.216 H 58.11 Z"
         transform="translate(-451.41541,-251.80041)"
         id="path10-5" />
    </clipPath>
    <clipPath
       clipPathUnits="userSpaceOnUse"
       id="clipPath12-1">
      <path
         d="M 58.11,52.887 H 554.321 V 267.216 H 58.11 Z"
         transform="translate(-451.45261,-251.89981)"
         id="path12-0" />
    </clipPath>
    <clipPath
       clipPathUnits="userSpaceOnUse"
       id="clipPath14-4">
      <path
         d="M 58.11,52.887 H 554.321 V 267.216 H 58.11 Z"
         id="path14-3" />
    </clipPath>
    <clipPath
       clipPathUnits="userSpaceOnUse"
       id="clipPath16-0">
      <path
         d="M 58.11,52.887 H 554.321 V 267.216 H 58.11 Z"
         id="path16-7" />
    </clipPath>
    <clipPath
       clipPathUnits="userSpaceOnUse"
       id="clipPath18-3">
      <path
         d="M 58.11,52.887 H 554.321 V 267.216 H 58.11 Z"
         id="path18-7" />
    </clipPath>
    <clipPath
       clipPathUnits="userSpaceOnUse"
       id="clipPath20-5">
      <path
         d="M 58.11,52.887 H 554.321 V 267.216 H 58.11 Z"
         id="path20-9" />
    </clipPath>
    <clipPath
       clipPathUnits="userSpaceOnUse"
       id="clipPath22-3">
      <path
         d="M 58.11,52.887 H 554.321 V 267.216 H 58.11 Z"
         transform="translate(-450.21321,-251.80041)"
         id="path22-3" />
    </clipPath>
    <clipPath
       clipPathUnits="userSpaceOnUse"
       id="clipPath24-5">
      <path
         d="M 58.11,52.887 H 554.321 V 267.216 H 58.11 Z"
         transform="translate(-450.17601,-251.89981)"
         id="path24-9" />
    </clipPath>
    <clipPath
       clipPathUnits="userSpaceOnUse"
       id="clipPath26-4">
      <path
         d="m 431.148,224.667 h 39.073 v 35.699 h -39.073 z"
         transform="translate(-469.07861,-260.266)"
         id="path26-5" />
    </clipPath>
    <clipPath
       clipPathUnits="userSpaceOnUse"
       id="clipPath2-4">
      <path
         d="M 58.11,52.887 H 554.321 V 267.216 H 58.11 Z"
         transform="translate(-83.482705,-226.00071)"
         id="path2-7" />
    </clipPath>
    <clipPath
       clipPathUnits="userSpaceOnUse"
       id="clipPath4-0">
      <path
         d="M 58.11,52.887 H 554.321 V 267.216 H 58.11 Z"
         transform="translate(-68.866702,-241.27081)"
         id="path4-7" />
    </clipPath>
    <clipPath
       clipPathUnits="userSpaceOnUse"
       id="clipPath6-3">
      <path
         d="M 58.11,52.887 H 554.321 V 267.216 H 58.11 Z"
         transform="translate(-112.04691,-249.8878)"
         id="path6-6" />
    </clipPath>
  </defs>
  <g
     inkscape:label="Calque 1"
     inkscape:groupmode="layer"
     id="layer1">
    <g
       id="g6"
       transform="matrix(0.89197483,0,0,0.89197483,-70.135246,-677.47045)">
      <path
         id="path1"
         d="m 0,0 c 9.862,0 17.857,7.995 17.857,17.857 0,9.862 -7.995,17.858 -17.857,17.858 -9.862,0 -17.857,-7.996 -17.857,-17.858 C -17.857,7.995 -9.862,0 0,0"
         style="fill:#f9dcc6;fill-opacity:1;fill-rule:nonzero;stroke:none"
         transform="matrix(1.3333333,0,0,-1.3333333,111.31027,821.18573)"
         clip-path="url(#clipPath2-4)" />
      <path
         id="path3"
         d="m 0,0 c 0.167,0.172 0.34,0.46 0.589,0.58 0.359,0.176 0.749,0.109 0.93,-0.338 0.174,-0.432 0.306,-0.885 0.45,-1.331 1.183,-3.677 3.524,-6.334 6.674,-8.276 0.141,-0.088 0.291,-0.16 0.429,-0.251 0.582,-0.38 0.688,-0.682 0.411,-1.135 -0.326,-0.528 -0.533,-0.528 -1.164,-0.19 -3.983,2.124 -6.49,5.552 -8.02,9.851 C 0.193,-0.791 0.128,-0.475 0,0"
         style="fill:#e6511d;fill-opacity:1;fill-rule:nonzero;stroke:none"
         transform="matrix(1.3333333,0,0,-1.3333333,91.822267,800.8256)"
         clip-path="url(#clipPath4-0)" />
      <path
         id="path5"
         d="m 0,0 c -0.09,1.571 -0.945,2.43 -2.464,2.438 -1.563,0.009 -3.128,-0.012 -4.693,-0.016 -0.276,0 -0.553,0.025 -0.96,0.044 0.303,0.62 0.549,1.129 0.797,1.635 1.041,2.121 2.119,4.224 3.115,6.368 1.133,2.444 -0.336,5.154 -2.905,5.458 -1.593,0.189 -3.091,-0.795 -3.811,-2.565 -1.38,-3.4 -2.737,-6.809 -4.1,-10.215 -0.31,-0.777 -0.473,-0.88 -1.357,-0.757 0,0.269 0.006,0.545 -0.002,0.821 -0.053,2.076 -0.909,3.682 -2.63,4.729 -0.434,0.263 -0.596,0.518 -0.581,1.051 0.096,3.362 -3.759,5.659 -6.112,4.284 -0.755,-0.442 -1.401,-1.089 -2.111,-1.62 -0.166,-0.125 -0.438,-0.287 -0.576,-0.226 -1.296,0.579 -2.504,0.309 -3.657,-0.385 -0.31,-0.186 -0.471,-0.228 -0.789,0.021 -2.722,2.136 -6.525,0.478 -6.996,-3.048 -0.062,-0.461 -0.313,-0.409 -0.599,-0.435 -2.056,-0.185 -3.731,-1.689 -4.184,-3.78 -0.094,-0.436 -0.111,-0.89 -0.168,-1.37 -1.196,0 -2.326,0.024 -3.455,-0.006 -1.35,-0.035 -2.222,-0.93 -2.307,-2.339 -0.026,-0.427 -0.006,-0.86 0.008,-1.29 0.039,-1.033 0.502,-1.766 1.46,-2.078 0.409,-0.135 0.496,-0.394 0.555,-0.797 0.221,-1.547 0.352,-3.128 0.764,-4.621 2.053,-7.449 6.4,-12.867 13.247,-16.007 0.204,-0.093 0.383,-0.241 0.574,-0.363 -0.199,-0.129 -0.339,-0.132 -0.478,-0.129 -1.789,0.042 -3.578,0.093 -5.368,0.119 -0.301,0.004 -0.66,-0.007 -0.889,-0.169 -0.254,-0.18 -0.572,-0.584 -0.524,-0.813 0.059,-0.28 0.436,-0.578 0.737,-0.687 0.354,-0.13 0.771,-0.083 1.163,-0.083 9.409,0.001 18.817,0.006 28.226,0.012 0.349,0 0.721,-0.045 1.04,0.066 0.267,0.093 0.642,0.365 0.663,0.589 0.028,0.286 -0.198,0.664 -0.421,0.885 -0.164,0.165 -0.498,0.201 -0.755,0.198 -1.769,-0.023 -3.538,-0.072 -5.306,-0.11 -0.23,-0.005 -0.462,0 -0.73,0 0.056,0.15 0.061,0.209 0.087,0.22 0.506,0.234 1.034,0.423 1.52,0.695 7.732,4.347 12.153,11.02 12.947,20.218 0.037,0.44 0.158,0.671 0.575,0.83 1.058,0.402 1.48,1.094 1.475,2.26 C 0.024,-0.646 0.018,-0.322 0,0 m -9.425,13.058 c 0.539,1.458 2.756,1.707 3.657,0.475 0.556,-0.76 0.574,-1.61 0.208,-2.377 C -6.904,8.331 -8.319,5.541 -9.72,2.745 -9.786,2.614 -9.961,2.46 -10.088,2.458 -11.232,2.436 -12.375,2.444 -13.648,2.444 Z M -43.217,3.253 c 0.357,1.541 1.257,2.486 2.764,2.724 0.373,0.059 0.77,-0.047 1.157,-0.086 0.68,-0.066 0.895,0.137 0.91,0.854 0.011,0.514 -0.048,1.051 0.076,1.535 0.426,1.673 2.752,3.167 4.669,1.468 0.38,-0.337 0.779,-0.874 1.187,-0.893 0.385,-0.018 0.78,0.548 1.193,0.82 0.998,0.661 1.996,0.509 2.969,-0.07 0.713,-0.424 1.177,-0.333 1.416,0.458 0.42,1.386 2.119,2.201 3.19,1.996 1.521,-0.291 2.627,-1.536 2.713,-3.144 0.015,-0.287 -0.06,-0.599 -0.166,-0.869 -0.173,-0.444 -0.083,-0.751 0.325,-0.952 0.279,-0.137 0.561,-0.264 0.844,-0.387 1.451,-0.633 2.269,-2.23 1.983,-3.827 -0.087,-0.485 -0.408,-0.466 -0.742,-0.465 -1.852,0.006 -3.704,0.018 -5.556,0.021 -2.141,0.005 -4.281,10e-4 -6.421,10e-4 v -0.01 c -3.971,0 -7.942,-10e-4 -11.914,0.002 -0.73,0.001 -0.769,0.081 -0.597,0.824 m 29.81,-24.721 c -7.494,-5.009 -15.375,-5.114 -23.058,-0.454 -7.487,4.541 -10.614,12.743 -10.497,18.441 h 43.495 c -0.514,-7.765 -3.785,-13.873 -9.94,-17.987 m 10.449,19.712 c -14.532,0.005 -29.065,0.005 -43.597,0.006 -0.515,0 -1.03,0.002 -1.543,0.005 -0.062,0.001 -0.124,0.003 -0.186,0.007 -0.702,0.042 -0.729,0.139 -0.716,1.697 0.005,0.561 0.167,0.805 0.751,0.803 4.014,-0.021 8.028,-0.011 12.042,-0.011 3.623,-0.001 7.246,-0.001 10.869,-0.001 7.575,0.001 15.149,0.001 22.724,0.001 1.033,0 1.06,-0.028 1.061,-1.066 10e-4,-1.458 10e-4,-1.441 -1.405,-1.441"
         style="fill:#e6511d;fill-opacity:1;fill-rule:nonzero;stroke:none"
         transform="matrix(1.3333333,0,0,-1.3333333,149.39587,789.33627)"
         clip-path="url(#clipPath6-3)" />
    </g>
  </g>
</svg>
