<?xml version="1.0" encoding="UTF-8" standalone="no"?>
<!-- Created with Inkscape (http://www.inkscape.org/) -->

<svg
   width="250"
   height="250"
   viewBox="0 0 66.145834 66.145834"
   version="1.1"
   id="svg1"
   inkscape:version="1.3.2 (091e20e, 2023-11-25, custom)"
   sodipodi:docname="ucf-picto-vaccin.svg"
   xmlns:inkscape="http://www.inkscape.org/namespaces/inkscape"
   xmlns:sodipodi="http://sodipodi.sourceforge.net/DTD/sodipodi-0.dtd"
   xmlns="http://www.w3.org/2000/svg"
   xmlns:svg="http://www.w3.org/2000/svg">
  <sodipodi:namedview
     id="namedview1"
     pagecolor="#ffffff"
     bordercolor="#000000"
     borderopacity="0.25"
     inkscape:showpageshadow="2"
     inkscape:pageopacity="0.0"
     inkscape:pagecheckerboard="0"
     inkscape:deskcolor="#d1d1d1"
     inkscape:document-units="mm"
     inkscape:zoom="2.0494792"
     inkscape:cx="124.66582"
     inkscape:cy="125.64168"
     inkscape:window-width="1920"
     inkscape:window-height="1001"
     inkscape:window-x="-9"
     inkscape:window-y="-9"
     inkscape:window-maximized="1"
     inkscape:current-layer="layer1" />
  <defs
     id="defs1">
    <clipPath
       clipPathUnits="userSpaceOnUse"
       id="clipPath2">
      <path
         d="m 85.039,50.053 h 448.58 v 729.21 H 85.039 Z"
         transform="translate(-110.6983,-641.71262)"
         id="path2" />
    </clipPath>
    <clipPath
       clipPathUnits="userSpaceOnUse"
       id="clipPath4">
      <path
         d="m 85.039,50.053 h 448.58 v 729.21 H 85.039 Z"
         transform="translate(-121.1752,-650.02372)"
         id="path4" />
    </clipPath>
    <clipPath
       clipPathUnits="userSpaceOnUse"
       id="clipPath6">
      <path
         d="m 85.039,50.053 h 448.58 v 729.21 H 85.039 Z"
         transform="translate(-108.3042,-652.77142)"
         id="path6" />
    </clipPath>
    <clipPath
       clipPathUnits="userSpaceOnUse"
       id="clipPath8">
      <path
         d="m 85.039,50.053 h 448.58 v 729.21 H 85.039 Z"
         transform="translate(-138.5013,-655.04081)"
         id="path8" />
    </clipPath>
    <clipPath
       clipPathUnits="userSpaceOnUse"
       id="clipPath10">
      <path
         d="m 85.039,50.053 h 448.58 v 729.21 H 85.039 Z"
         transform="translate(-88.458805,-650.69342)"
         id="path10" />
    </clipPath>
    <clipPath
       clipPathUnits="userSpaceOnUse"
       id="clipPath12">
      <path
         d="m 85.039,50.053 h 448.58 v 729.21 H 85.039 Z"
         transform="translate(-113.4223,-639.72472)"
         id="path12" />
    </clipPath>
    <clipPath
       clipPathUnits="userSpaceOnUse"
       id="clipPath2-3">
      <path
         d="M 58.11,52.887 H 554.321 V 267.216 H 58.11 Z"
         transform="translate(-238.60401,-224.7877)"
         id="path2-8" />
    </clipPath>
    <clipPath
       clipPathUnits="userSpaceOnUse"
       id="clipPath4-9">
      <path
         d="M 58.11,52.887 H 554.321 V 267.216 H 58.11 Z"
         transform="translate(-241.82601,-257.74371)"
         id="path4-4" />
    </clipPath>
    <clipPath
       clipPathUnits="userSpaceOnUse"
       id="clipPath6-9">
      <path
         d="M 58.11,52.887 H 554.321 V 267.216 H 58.11 Z"
         transform="translate(-246.16081,-249.4657)"
         id="path6-1" />
    </clipPath>
    <clipPath
       clipPathUnits="userSpaceOnUse"
       id="clipPath8-1">
      <path
         d="M 58.11,52.887 H 554.321 V 267.216 H 58.11 Z"
         transform="translate(-237.68071,-246.4372)"
         id="path8-6" />
    </clipPath>
    <clipPath
       clipPathUnits="userSpaceOnUse"
       id="clipPath10-5">
      <path
         d="M 58.11,52.887 H 554.321 V 267.216 H 58.11 Z"
         transform="translate(-237.72171,-233.68161)"
         id="path10-2" />
    </clipPath>
    <clipPath
       clipPathUnits="userSpaceOnUse"
       id="clipPath12-8">
      <path
         d="M 58.11,52.887 H 554.321 V 267.216 H 58.11 Z"
         transform="translate(-275.8198,-259.55841)"
         id="path12-2" />
    </clipPath>
    <clipPath
       clipPathUnits="userSpaceOnUse"
       id="clipPath2-2">
      <path
         d="M 58.11,52.887 H 554.321 V 267.216 H 58.11 Z"
         transform="translate(-429.19391,-261.90781)"
         id="path2-87" />
    </clipPath>
    <clipPath
       clipPathUnits="userSpaceOnUse"
       id="clipPath4-6">
      <path
         d="M 58.11,52.887 H 554.321 V 267.216 H 58.11 Z"
         id="path4-8" />
    </clipPath>
    <clipPath
       clipPathUnits="userSpaceOnUse"
       id="clipPath6-4">
      <path
         d="M 58.11,52.887 H 554.321 V 267.216 H 58.11 Z"
         transform="translate(-454.61861,-251.73631)"
         id="path6-5" />
    </clipPath>
    <clipPath
       clipPathUnits="userSpaceOnUse"
       id="clipPath8-4">
      <path
         d="M 58.11,52.887 H 554.321 V 267.216 H 58.11 Z"
         transform="translate(-458.07671,-247.04391)"
         id="path8-9" />
    </clipPath>
    <clipPath
       clipPathUnits="userSpaceOnUse"
       id="clipPath10-6">
      <path
         d="M 58.11,52.887 H 554.321 V 267.216 H 58.11 Z"
         transform="translate(-451.41541,-251.80041)"
         id="path10-0" />
    </clipPath>
    <clipPath
       clipPathUnits="userSpaceOnUse"
       id="clipPath12-87">
      <path
         d="M 58.11,52.887 H 554.321 V 267.216 H 58.11 Z"
         transform="translate(-451.45261,-251.89981)"
         id="path12-9" />
    </clipPath>
    <clipPath
       clipPathUnits="userSpaceOnUse"
       id="clipPath14">
      <path
         d="M 58.11,52.887 H 554.321 V 267.216 H 58.11 Z"
         id="path14" />
    </clipPath>
    <clipPath
       clipPathUnits="userSpaceOnUse"
       id="clipPath16">
      <path
         d="M 58.11,52.887 H 554.321 V 267.216 H 58.11 Z"
         id="path16" />
    </clipPath>
    <clipPath
       clipPathUnits="userSpaceOnUse"
       id="clipPath18">
      <path
         d="M 58.11,52.887 H 554.321 V 267.216 H 58.11 Z"
         id="path18" />
    </clipPath>
    <clipPath
       clipPathUnits="userSpaceOnUse"
       id="clipPath20">
      <path
         d="M 58.11,52.887 H 554.321 V 267.216 H 58.11 Z"
         id="path20" />
    </clipPath>
    <clipPath
       clipPathUnits="userSpaceOnUse"
       id="clipPath22">
      <path
         d="M 58.11,52.887 H 554.321 V 267.216 H 58.11 Z"
         transform="translate(-450.21321,-251.80041)"
         id="path22" />
    </clipPath>
    <clipPath
       clipPathUnits="userSpaceOnUse"
       id="clipPath24">
      <path
         d="M 58.11,52.887 H 554.321 V 267.216 H 58.11 Z"
         transform="translate(-450.17601,-251.89981)"
         id="path24" />
    </clipPath>
    <clipPath
       clipPathUnits="userSpaceOnUse"
       id="clipPath26">
      <path
         d="m 431.148,224.667 h 39.073 v 35.699 h -39.073 z"
         transform="translate(-469.07861,-260.266)"
         id="path26" />
    </clipPath>
    <clipPath
       clipPathUnits="userSpaceOnUse"
       id="clipPath2-8">
      <path
         d="M 58.11,52.887 H 554.321 V 267.216 H 58.11 Z"
         transform="translate(-429.19391,-261.90781)"
         id="path2-1" />
    </clipPath>
    <clipPath
       clipPathUnits="userSpaceOnUse"
       id="clipPath4-4">
      <path
         d="M 58.11,52.887 H 554.321 V 267.216 H 58.11 Z"
         id="path4-0" />
    </clipPath>
    <clipPath
       clipPathUnits="userSpaceOnUse"
       id="clipPath6-0">
      <path
         d="M 58.11,52.887 H 554.321 V 267.216 H 58.11 Z"
         transform="translate(-454.61861,-251.73631)"
         id="path6-58" />
    </clipPath>
    <clipPath
       clipPathUnits="userSpaceOnUse"
       id="clipPath8-3">
      <path
         d="M 58.11,52.887 H 554.321 V 267.216 H 58.11 Z"
         transform="translate(-458.07671,-247.04391)"
         id="path8-61" />
    </clipPath>
    <clipPath
       clipPathUnits="userSpaceOnUse"
       id="clipPath10-2">
      <path
         d="M 58.11,52.887 H 554.321 V 267.216 H 58.11 Z"
         transform="translate(-451.41541,-251.80041)"
         id="path10-5" />
    </clipPath>
    <clipPath
       clipPathUnits="userSpaceOnUse"
       id="clipPath12-1">
      <path
         d="M 58.11,52.887 H 554.321 V 267.216 H 58.11 Z"
         transform="translate(-451.45261,-251.89981)"
         id="path12-0" />
    </clipPath>
    <clipPath
       clipPathUnits="userSpaceOnUse"
       id="clipPath14-4">
      <path
         d="M 58.11,52.887 H 554.321 V 267.216 H 58.11 Z"
         id="path14-3" />
    </clipPath>
    <clipPath
       clipPathUnits="userSpaceOnUse"
       id="clipPath16-0">
      <path
         d="M 58.11,52.887 H 554.321 V 267.216 H 58.11 Z"
         id="path16-7" />
    </clipPath>
    <clipPath
       clipPathUnits="userSpaceOnUse"
       id="clipPath18-3">
      <path
         d="M 58.11,52.887 H 554.321 V 267.216 H 58.11 Z"
         id="path18-7" />
    </clipPath>
    <clipPath
       clipPathUnits="userSpaceOnUse"
       id="clipPath20-5">
      <path
         d="M 58.11,52.887 H 554.321 V 267.216 H 58.11 Z"
         id="path20-9" />
    </clipPath>
    <clipPath
       clipPathUnits="userSpaceOnUse"
       id="clipPath22-3">
      <path
         d="M 58.11,52.887 H 554.321 V 267.216 H 58.11 Z"
         transform="translate(-450.21321,-251.80041)"
         id="path22-3" />
    </clipPath>
    <clipPath
       clipPathUnits="userSpaceOnUse"
       id="clipPath24-5">
      <path
         d="M 58.11,52.887 H 554.321 V 267.216 H 58.11 Z"
         transform="translate(-450.17601,-251.89981)"
         id="path24-9" />
    </clipPath>
    <clipPath
       clipPathUnits="userSpaceOnUse"
       id="clipPath26-4">
      <path
         d="m 431.148,224.667 h 39.073 v 35.699 h -39.073 z"
         transform="translate(-469.07861,-260.266)"
         id="path26-5" />
    </clipPath>
    <clipPath
       clipPathUnits="userSpaceOnUse"
       id="clipPath2-4">
      <path
         d="M 58.11,52.887 H 554.321 V 267.216 H 58.11 Z"
         transform="translate(-83.482705,-226.00071)"
         id="path2-7" />
    </clipPath>
    <clipPath
       clipPathUnits="userSpaceOnUse"
       id="clipPath4-0">
      <path
         d="M 58.11,52.887 H 554.321 V 267.216 H 58.11 Z"
         transform="translate(-68.866702,-241.27081)"
         id="path4-7" />
    </clipPath>
    <clipPath
       clipPathUnits="userSpaceOnUse"
       id="clipPath6-3">
      <path
         d="M 58.11,52.887 H 554.321 V 267.216 H 58.11 Z"
         transform="translate(-112.04691,-249.8878)"
         id="path6-6" />
    </clipPath>
    <clipPath
       clipPathUnits="userSpaceOnUse"
       id="clipPath2-88">
      <path
         d="m 85.039,50.053 h 448.58 v 729.21 H 85.039 Z"
         transform="translate(-122.6422,-434.64141)"
         id="path2-0" />
    </clipPath>
    <clipPath
       clipPathUnits="userSpaceOnUse"
       id="clipPath4-99">
      <path
         d="m 85.039,50.053 h 448.58 v 729.21 H 85.039 Z"
         transform="translate(-129.3493,-419.22001)"
         id="path4-3" />
    </clipPath>
    <clipPath
       clipPathUnits="userSpaceOnUse"
       id="clipPath6-1">
      <path
         d="m 85.039,50.053 h 448.58 v 729.21 H 85.039 Z"
         id="path6-3" />
    </clipPath>
    <clipPath
       clipPathUnits="userSpaceOnUse"
       id="clipPath8-37">
      <path
         d="m 85.039,50.053 h 448.58 v 729.21 H 85.039 Z"
         id="path8-0" />
    </clipPath>
    <clipPath
       clipPathUnits="userSpaceOnUse"
       id="clipPath10-8">
      <path
         d="m 85.039,50.053 h 448.58 v 729.21 H 85.039 Z"
         transform="translate(-120.8284,-448.90691)"
         id="path10-7" />
    </clipPath>
    <clipPath
       clipPathUnits="userSpaceOnUse"
       id="clipPath12-6">
      <path
         d="m 85.039,50.053 h 448.58 v 729.21 H 85.039 Z"
         transform="translate(-98.4823,-406.53311)"
         id="path12-98" />
    </clipPath>
    <clipPath
       clipPathUnits="userSpaceOnUse"
       id="clipPath14-5">
      <path
         d="m 85.039,50.053 h 448.58 v 729.21 H 85.039 Z"
         transform="translate(-109.741,-435.65251)"
         id="path14-1" />
    </clipPath>
    <clipPath
       clipPathUnits="userSpaceOnUse"
       id="clipPath16-9">
      <path
         d="m 85.039,50.053 h 448.58 v 729.21 H 85.039 Z"
         id="path16-0" />
    </clipPath>
    <clipPath
       clipPathUnits="userSpaceOnUse"
       id="clipPath18-2">
      <path
         d="m 85.039,50.053 h 448.58 v 729.21 H 85.039 Z"
         transform="translate(-122.1945,-434.59691)"
         id="path18-4" />
    </clipPath>
    <clipPath
       clipPathUnits="userSpaceOnUse"
       id="clipPath20-4">
      <path
         d="m 85.039,50.053 h 448.58 v 729.21 H 85.039 Z"
         transform="translate(-109.29321,-439.94891)"
         id="path20-5" />
    </clipPath>
    <clipPath
       clipPathUnits="userSpaceOnUse"
       id="clipPath22-7">
      <path
         d="m 85.039,50.053 h 448.58 v 729.21 H 85.039 Z"
         transform="translate(-110.3008,-439.88091)"
         id="path22-1" />
    </clipPath>
    <clipPath
       clipPathUnits="userSpaceOnUse"
       id="clipPath2-9">
      <path
         d="M 58.11,52.887 H 554.321 V 267.216 H 58.11 Z"
         transform="translate(-238.60401,-224.7877)"
         id="path2-2" />
    </clipPath>
    <clipPath
       clipPathUnits="userSpaceOnUse"
       id="clipPath4-7">
      <path
         d="M 58.11,52.887 H 554.321 V 267.216 H 58.11 Z"
         transform="translate(-241.82601,-257.74371)"
         id="path4-5" />
    </clipPath>
    <clipPath
       clipPathUnits="userSpaceOnUse"
       id="clipPath6-8">
      <path
         d="M 58.11,52.887 H 554.321 V 267.216 H 58.11 Z"
         transform="translate(-246.16081,-249.4657)"
         id="path6-65" />
    </clipPath>
    <clipPath
       clipPathUnits="userSpaceOnUse"
       id="clipPath8-2">
      <path
         d="M 58.11,52.887 H 554.321 V 267.216 H 58.11 Z"
         transform="translate(-237.68071,-246.4372)"
         id="path8-3" />
    </clipPath>
    <clipPath
       clipPathUnits="userSpaceOnUse"
       id="clipPath10-67">
      <path
         d="M 58.11,52.887 H 554.321 V 267.216 H 58.11 Z"
         transform="translate(-237.72171,-233.68161)"
         id="path10-9" />
    </clipPath>
    <clipPath
       clipPathUnits="userSpaceOnUse"
       id="clipPath12-2">
      <path
         d="M 58.11,52.887 H 554.321 V 267.216 H 58.11 Z"
         transform="translate(-275.8198,-259.55841)"
         id="path12-5" />
    </clipPath>
  </defs>
  <g
     inkscape:label="Calque 1"
     inkscape:groupmode="layer"
     id="layer1">
    <g
       id="g12"
       transform="matrix(0.78511349,0,0,0.78511349,-227.32557,-592.34529)">
      <path
         id="path1"
         d="m 0,0 c 10.061,0 18.218,8.157 18.218,18.218 0,10.06 -8.157,18.217 -18.218,18.217 -10.061,0 -18.218,-8.157 -18.218,-18.217 C -18.218,8.157 -10.061,0 0,0"
         style="fill:#f9dcc6;fill-opacity:1;fill-rule:nonzero;stroke:none"
         transform="matrix(1.3333333,0,0,-1.3333333,318.13867,822.80307)"
         clip-path="url(#clipPath2-9)" />
      <path
         id="path3"
         d="m 0,0 c 4.019,0.016 7.614,-1.243 10.845,-3.598 0.209,-0.154 0.466,-0.312 0.566,-0.529 0.158,-0.348 -0.545,-1.287 -0.846,-1.135 -0.651,0.329 -1.214,0.83 -1.831,1.231 -8.029,5.212 -19.062,2.1 -23.438,-6.467 -4.384,-8.58 -0.59,-18.97 8.241,-22.716 8.692,-3.687 18.663,0.619 21.907,9.552 0.883,2.431 1.169,4.896 0.983,7.46 -0.03,0.42 1.368,0.576 1.406,0.176 0.655,-6.832 -1.702,-12.477 -7.218,-16.518 -8.417,-6.167 -20.127,-4.034 -25.783,4.702 -5.865,9.061 -2.592,21.258 7.213,26.022 C -5.428,-0.592 -2.784,-0.027 0,0"
         style="fill:#e6511d;fill-opacity:1;fill-rule:nonzero;stroke:none"
         transform="matrix(1.3333333,0,0,-1.3333333,322.43467,778.86173)"
         clip-path="url(#clipPath4-7)" />
      <path
         id="path5"
         d="m 0,0 c -4.576,-0.326 -7.085,-8.011 -1.505,-8.601 2.552,-0.029 5.078,-2.435 4.99,-4.945 -0.049,-1.398 0.426,-3.386 1.471,-4.266 0.781,-0.751 1.312,-1.574 0.445,-1.64 -2.335,-0.175 -3.832,2.967 -3.419,5.913 0.204,1.462 -1.924,3.373 -3.432,3.404 -2.861,0.058 -4.551,2.038 -4.779,4.922 -0.253,3.211 1.46,5.364 3.901,6.418 C 2.856,3.446 4.168,0.297 0,0"
         style="fill:#e6511d;fill-opacity:1;fill-rule:nonzero;stroke:none"
         transform="matrix(1.3333333,0,0,-1.3333333,328.2144,789.89907)"
         clip-path="url(#clipPath6-8)" />
      <path
         id="path7"
         d="m 0,0 c -0.642,-6.561 -6.752,-2.486 -6.456,-6.544 0.108,-1.943 -1.301,-2.824 -2.483,-3.871 -0.67,-0.305 -1.248,0.246 -0.919,1 0.847,1.1 2.064,1.826 1.873,3.481 -0.058,1.647 1.388,2.932 3.138,3.026 2.769,-0.103 4.526,3.15 2.459,4.791 -2.81,2.23 -2.023,3.804 -0.857,2.971 C -1.569,3.655 -0.192,2.182 0,0"
         style="fill:#e6511d;fill-opacity:1;fill-rule:nonzero;stroke:none"
         transform="matrix(1.3333333,0,0,-1.3333333,316.9076,793.93707)"
         clip-path="url(#clipPath8-2)" />
      <path
         id="path9"
         d="M 0,0 C -0.723,2.383 -4.352,2.809 -6.034,0.735 -8.913,-2.815 -9.017,-0.21 -8.841,-0.003 -6.564,3.51 -0.583,5.603 1.378,0.645 3.044,-2.94 0.301,-3.319 0.272,-6.227 -0.035,-8.599 -2.157,-7.846 -1.827,-5.965 -1.611,-4.74 0.536,-1.765 0,0"
         style="fill:#e6511d;fill-opacity:1;fill-rule:nonzero;stroke:none"
         transform="matrix(1.3333333,0,0,-1.3333333,316.96227,810.94453)"
         clip-path="url(#clipPath10-67)" />
      <path
         id="path11"
         d="M 0,0 1.299,1.299 -5.06,7.657 -6.358,6.358 -3.829,3.829 -7.524,0.133 l -4.412,4.412 -1.299,-1.299 1.933,-1.934 c -1.787,-1.668 -4.181,-3.84 -6.052,-5.597 -5.145,-4.829 -3.66,-9.092 -3.66,-9.092 0,0 -3.813,-2.844 -3.923,-5.201 1.566,0.074 4.958,4.059 4.958,4.059 0,0 3.936,-0.788 7.721,1.972 2.32,1.692 5.225,5.018 7.441,7.376 l 1.705,-1.705 1.299,1.298 -4.411,4.412 3.695,3.695 z m -6.07,-4.022 c -2.466,-2.528 -4.924,-5.94 -7.869,-7.885 -2.366,-1.563 -5.515,-0.514 -5.515,-0.514 0,0 -1.051,2.887 0.917,4.873 0.429,0.431 0.761,0.81 1.233,0.601 l 1.873,-1.872 1.298,1.298 -2.196,2.198 c 0.049,0.754 1.137,1.488 2.009,2.325 l 2.302,-2.303 1.3,1.3 -2.047,2.046 c 0.789,0.718 1.54,1.403 2.476,2.255 l 4.256,-4.256 C -6.045,-3.978 -6.055,-4.001 -6.07,-4.022"
         style="fill:#e6511d;fill-opacity:1;fill-rule:nonzero;stroke:none"
         transform="matrix(1.3333333,0,0,-1.3333333,367.75973,776.44213)"
         clip-path="url(#clipPath12-2)" />
    </g>
  </g>
</svg>
