<?xml version="1.0" encoding="UTF-8" standalone="no"?>
<!-- Created with Inkscape (http://www.inkscape.org/) -->

<svg
   width="350"
   height="110"
   viewBox="0 0 92.604168 29.104167"
   version="1.1"
   id="svg1"
   inkscape:version="1.3.2 (091e20e, 2023-11-25, custom)"
   sodipodi:docname="unicef_normandie_footer.svg"
   xmlns:inkscape="http://www.inkscape.org/namespaces/inkscape"
   xmlns:sodipodi="http://sodipodi.sourceforge.net/DTD/sodipodi-0.dtd"
   xmlns="http://www.w3.org/2000/svg"
   xmlns:svg="http://www.w3.org/2000/svg">
  <sodipodi:namedview
     id="namedview1"
     pagecolor="#ffffff"
     bordercolor="#000000"
     borderopacity="0.25"
     inkscape:showpageshadow="2"
     inkscape:pageopacity="0.0"
     inkscape:pagecheckerboard="0"
     inkscape:deskcolor="#d1d1d1"
     inkscape:document-units="mm"
     inkscape:zoom="2.1942218"
     inkscape:cx="145.38184"
     inkscape:cy="118.26516"
     inkscape:window-width="1920"
     inkscape:window-height="991"
     inkscape:window-x="-9"
     inkscape:window-y="-9"
     inkscape:window-maximized="1"
     inkscape:current-layer="g1" />
  <defs
     id="defs1" />
  <g
     inkscape:label="Calque 1"
     inkscape:groupmode="layer"
     id="layer1">
    <g
       id="g1"
       transform="matrix(0.60319051,0,0,0.60319051,-2.35846,-0.10901544)">
      <g
         id="g2"
         transform="matrix(2.074642,0,0,2.074642,36.345829,-95.669721)">
        <text
           xml:space="preserve"
           style="font-style:normal;font-variant:normal;font-weight:normal;font-stretch:normal;font-size:4.58611px;font-family:'Yeseva One';-inkscape-font-specification:'Yeseva One, Normal';font-variant-ligatures:normal;font-variant-caps:normal;font-variant-numeric:normal;font-variant-east-asian:normal;fill:#ffabdf;fill-opacity:1;stroke-width:0.264583"
           x="19.082325"
           y="64.441422"
           id="text2"><tspan
             sodipodi:role="line"
             id="tspan2"
             style="font-style:normal;font-variant:normal;font-weight:normal;font-stretch:normal;font-size:4.58611px;font-family:'Yeseva One';-inkscape-font-specification:'Yeseva One, Normal';font-variant-ligatures:normal;font-variant-caps:normal;font-variant-numeric:normal;font-variant-east-asian:normal;fill:#ffabdf;fill-opacity:1;stroke-width:0.264583"
             x="19.082325"
             y="64.441422">NORMANDIE</tspan></text>
        <text
           xml:space="preserve"
           style="font-style:normal;font-variant:normal;font-weight:normal;font-stretch:normal;font-size:11.9944px;font-family:'Yeseva One';-inkscape-font-specification:'Yeseva One, Normal';font-variant-ligatures:normal;font-variant-caps:normal;font-variant-numeric:normal;font-variant-east-asian:normal;fill:#ffabdf;fill-opacity:1;stroke-width:0.264583"
           x="11.084942"
           y="59.724903"
           id="text1"
           inkscape:label="unicef"><tspan
             sodipodi:role="line"
             id="tspan1"
             style="font-style:normal;font-variant:normal;font-weight:normal;font-stretch:normal;font-size:11.9944px;font-family:'Yeseva One';-inkscape-font-specification:'Yeseva One, Normal';font-variant-ligatures:normal;font-variant-caps:normal;font-variant-numeric:normal;font-variant-east-asian:normal;fill:#ffabdf;fill-opacity:1;stroke-width:0.264583"
             x="11.084942"
             y="59.724903">UNICEF</tspan></text>
      </g>
      <path
         style="fill:#293271;fill-opacity:1;stroke-width:0.242951"
         d="M 29.694651,45.21476 C 29.340032,43.561227 28.404636,41.736544 27.264857,40.474945 26.76397,39.920523 24.588488,37.900647 22.43045,35.986333 15.969047,30.254668 13.048551,26.884371 11.165864,22.986844 9.8773431,20.31936 9.55639,19.052989 9.55639,16.636427 c 0,-1.812059 0.781209,-4.705308 1.451458,-5.375557 0.542797,-0.542797 0.772225,0.169023 0.504187,1.564287 -0.93041,4.843234 2.809159,10.545332 9.626342,14.678249 0.907923,0.55043 1.70363,1.000782 1.768233,1.000782 0.06461,0 -0.26444,-0.796902 -0.731213,-1.770893 -1.252121,-2.612736 -1.096363,-5.337465 0.316723,-5.540594 0.461668,-0.06636 0.563562,0.06917 0.70177,0.933474 0.24428,1.527646 1.79889,3.704981 4.982688,6.97859 3.376153,3.471388 3.734628,3.955933 4.410102,5.961047 0.607203,1.802455 0.652961,3.82257 0.131899,5.823061 -0.399094,1.532225 -1.535758,4.008245 -2.297871,5.005506 L 29.96757,46.48733 Z m 6.984605,-0.339943 c -1.52457,-2.726184 -1.944899,-4.181192 -1.9679,-6.812039 -0.03018,-3.452409 0.639258,-4.682456 5.006881,-9.199759 3.378904,-3.494702 4.903926,-5.715538 4.903926,-7.141416 0,-0.404815 0.140382,-0.573872 0.476526,-0.573872 0.786467,0 1.240057,0.939961 1.239224,2.568018 -4.86e-4,1.191933 -0.162138,1.798429 -0.834481,3.133237 -0.458551,0.910359 -0.780918,1.655202 -0.716371,1.655202 0.425932,0 3.835217,-2.253674 5.561429,-3.676328 4.403213,-3.628893 6.542335,-7.934432 5.87608,-11.827142 -0.457025,-2.670251 0.365894,-2.504445 1.416757,0.285458 0.665521,1.766872 0.717423,4.719021 0.118813,6.758088 -0.662841,2.257857 -2.418151,5.415145 -4.322006,7.774024 -1.678657,2.079856 -5.824939,6.136927 -10.532477,10.305859 -2.694248,2.385987 -4.009173,4.129927 -4.566309,6.056141 -0.732189,2.531427 -0.651677,2.497744 -1.660092,0.694529 z m 16.40407,-23.604478 c 0.09356,-0.269737 0.344669,-1.358829 0.558024,-2.420202 0.396995,-1.974916 0.398132,-1.958612 -0.365534,-5.242774 -0.08814,-0.379026 -0.01611,-0.551733 0.230111,-0.551733 0.502277,0 1.067224,0.686038 1.650163,2.003874 0.569963,1.288491 0.462718,1.806878 -0.932485,4.507285 -0.866913,1.677904 -1.41583,2.497971 -1.140279,1.70355 z M 13.993135,20.571701 c -0.819909,-1.326642 -1.739377,-3.557697 -1.739377,-4.220535 0,-0.746045 0.609409,-2.259179 1.150825,-2.857436 0.533762,-0.589798 1.415186,-0.59646 1.187439,-0.009 -0.900523,2.322941 -0.963479,3.992367 -0.252232,6.688574 0.176951,0.670788 0.285543,1.219617 0.241316,1.219617 -0.04423,0 -0.308813,-0.36956 -0.587971,-0.821245 z M 52.4446,19.308617 c -0.06302,-0.944079 -0.303988,-2.092086 -0.535494,-2.55113 -0.755806,-1.498664 -0.297732,-2.055855 0.762415,-0.927381 0.613097,0.65261 0.675057,1.968575 0.186875,3.968942 l -0.299221,1.226075 z m -37.684291,0.02041 c -0.443643,-2.148339 -0.385148,-2.919753 0.267924,-3.533282 1.067071,-1.00246 1.509905,-0.471153 0.781436,0.937556 -0.202145,0.390901 -0.453532,1.461302 -0.55864,2.378671 l -0.191105,1.66794 z"
         id="path814"
         inkscape:label="hands" />
      <g
         id="g814"
         transform="matrix(0.24295116,0,0,0.24295116,-59.60647,-9.2212637)">
        <path
           style="fill:#ffabdf;fill-opacity:1;stroke:none"
           d="m 352.58972,129.96389 v 1.00931 c 5.80822,5.68833 16.66325,17.52611 25.23298,18.2799 3.60837,0.31738 7.66061,-2.19874 11.1025,-3.14011 -6.05106,-15.64558 -21.84314,-29.3362 -36.33548,-16.1491 m 49.45663,9.08387 20.18638,-13.12115 v -2.01864 c -9.29314,-2.3151 -16.49572,7.73071 -20.18638,15.13979 z"
           id="path309" />
        <path
           style="fill:#ffabdf;fill-opacity:1;stroke:none"
           d="m 328.36607,96.656363 c 2.49989,9.066867 8.53807,19.614937 16.1491,25.232967 8.83981,-16.84297 1.3805,-25.221417 -16.1491,-25.232967 z"
           id="path79" />
        <path
           style="fill:#ffabdf;fill-opacity:1;stroke:none"
           d="m 326.34743,88.581813 c 17.09813,-3.17417 32.43224,-1.52196 48.44731,-10.12978 2.69041,-1.44606 11.5262,-8.98358 14.22469,-4.59492 2.66387,4.33239 -13.31782,16.84499 -15.07359,21.78993 -4.70932,13.263237 12.51487,32.349427 22.0446,39.363437 3.67898,-5.9895 17.32207,-23.9319 7.83312,-30.11367 -6.87626,-4.47968 -16.70682,1.19031 -20.95427,-7.231127 14.41929,-2.67684 28.89819,-1.09307 42.39139,-7.88219 1.85823,-0.93496 10.30776,-7.54972 11.76294,-3.79973 1.54136,3.9721 -7.8623,10.55204 -9.73497,13.70056 -3.56178,5.988387 -0.67354,11.509647 2.00931,17.158417 h 2.01864 c 8.49626,-11.86239 15.40791,-24.188047 12.65231,-39.363437 -5.45697,-30.05197 -39.6779,-30.01057 -58.07166,-13.12114 -16.91814,-35.55527 -73.03292,-12.23947 -59.54982,24.22365 m 23.22991,-22.77587 c 12.11577,-3.35544 18.1712,15.04726 6.02477,18.29702 -11.48402,3.07253 -17.34311,-15.16242 -6.02477,-18.29702 m 59.54983,13.27143 c 9.55902,-0.90262 10.44494,13.87228 0.99373,14.29171 -9.03828,0.40111 -9.81157,-13.45907 -0.99373,-14.29171 z"
           id="path1" />
      </g>
    </g>
  </g>
</svg>
