<svg id="UNICEF_Logo_RGB_FR" data-name="UNICEF Logo RGB FR" xmlns="http://www.w3.org/2000/svg" viewBox="0 0 586.26 61.25"><defs><style>.cls-1{fill:#00aeef;}</style></defs><path class="cls-1" d="M182.27,36.87a16.41,16.41,0,1,0,16.41,16.41A16.41,16.41,0,0,0,182.27,36.87Zm12.8,7.26a23.2,23.2,0,0,1-2.64,1.53,16.68,16.68,0,0,0-2-3.07,16.19,16.19,0,0,0,1.91-1.37A15.47,15.47,0,0,1,195,44.13Zm-6.91-5.45a15.47,15.47,0,0,1,3.68,2.11A13.74,13.74,0,0,1,190,42.07a16.83,16.83,0,0,0-2.7-2.5,7,7,0,0,0,.83-.89Zm1.28,3.73a15.26,15.26,0,0,1-2.77,1.15,24,24,0,0,0-1.37-2.67,8.07,8.07,0,0,0,1.5-.88A16.69,16.69,0,0,1,189.44,42.41Zm-1.94-4a6.38,6.38,0,0,1-.73.74,17.23,17.23,0,0,0-2.77-1.5,15.94,15.94,0,0,1,3.48.78Zm-1.29,1.18a6.75,6.75,0,0,1-1.26.7,22.64,22.64,0,0,0-1.58-2.2A15.11,15.11,0,0,1,186.21,39.59Zm-3.6-1.39a24.12,24.12,0,0,1,1.69,2.32,7,7,0,0,1-1.69.3V38.2Zm0,3.3a8.05,8.05,0,0,0,2.06-.38A24,24,0,0,1,186,43.75a15.74,15.74,0,0,1-3.41.47v-2.7Zm-.69-3.27v2.59a6.73,6.73,0,0,1-1.67-.3A24.8,24.8,0,0,1,181.92,38.23Zm-2.31,2.06a6.75,6.75,0,0,1-1.26-.7,16,16,0,0,1,2.83-1.5A24.38,24.38,0,0,0,179.61,40.29Zm.94-2.67a18.22,18.22,0,0,0-2.77,1.53,8.5,8.5,0,0,1-.73-.74A15.57,15.57,0,0,1,180.55,37.62ZM191.8,65.81c-2.19-1.2-2.23-2.86-2.11-3.47s.54-.35.81-.35c1.43,0,2.94-.42,4.8-2.32a7.28,7.28,0,0,0-.47-10c-3.47-3.34-7.16-2.75-9.54.25a3.68,3.68,0,0,1-2.71,1c-1.53-.06-.57,1.14-.57,1.39s-.23.43-.36.39c-.52-.14-.31.62-.31.85a.37.37,0,0,1-.33.35c-.64,0-.47.58-.45.74a.58.58,0,0,1-.25.54,1.41,1.41,0,0,0-.45,1c0,.7.64,1.18,1.71,2a2.56,2.56,0,0,1,1.22,2.09,6.48,6.48,0,0,0,.31,2,1.36,1.36,0,0,1-1.22,2c-1.8.07-5,1.51-5.27,1.6a6.35,6.35,0,0,1-3.4.23,16.64,16.64,0,0,1-1.61-1.3,2.53,2.53,0,0,1,.52-2,2.71,2.71,0,0,0,2,.58,23.16,23.16,0,0,0,3.31-.48.9.9,0,0,1,.72,0,1.87,1.87,0,0,0,2.54-.74,1.64,1.64,0,0,0,.21-.61c.52-1.81-.71-1.3-.87-1.22s-.37,0-.29-.1c.23-.46-.12-.41-.31-.43a2.72,2.72,0,0,0-1.38.68.47.47,0,0,1-.5.13c-.67-.33-2.66.15-3.27-.93a36.71,36.71,0,0,0-.8-5.42.75.75,0,0,1,.08-.71c.51-.76,1.9,0,2.65,0a1.38,1.38,0,0,0,1.3-.71c.24-.3.41-.13.54-.21s0-.33.07-.44.13-.06.28-.19,0-.43.06-.55c.22-.33.83-.06.47-.94a1.44,1.44,0,0,1,.34-1.36c.44-.57,2.14-3-.85-5.43s-5.73-2.17-7.59-.15-.93,5-.74,5.73a1.64,1.64,0,0,1-1,1.79,14.51,14.51,0,0,0-2.55,1.77,15.65,15.65,0,0,1,9.86-14.24,8.74,8.74,0,0,0,.83.89c-.66.47-2.09,1.75-2.09,1.75l.38.08.39.11s1.26-1.07,1.85-1.5a8.07,8.07,0,0,0,1.5.88c-.29.48-1,1.83-1,1.83l.31.2c.08,0,.16.12.24.18l1.08-2a8,8,0,0,0,2,.37v2.71c-.38,0-1.37-.06-1.78-.1h-.25l.14.21a3.35,3.35,0,0,1,.27.45v.06h.07c.29,0,1.2.06,1.53.07v4.92h.69v-1c1,0,1.83-.12,2.83-.2h.05l.88-.78h-.48c-1.06.14-2,.21-2.84.25h-.44V44.89a15.78,15.78,0,0,0,3.68-.52c.33.81,1,2.78,1,2.78l.64-.2s-.62-2-.95-2.77a15.28,15.28,0,0,0,2.95-1.25,15.55,15.55,0,0,1,1.94,3c-.48.22-1.36.53-1.36.53a7.57,7.57,0,0,1,1.24.25l.41-.18.19.43.88.39-.1-.25s-.3-.7-.36-.86a23.9,23.9,0,0,0,2.73-1.58,15.74,15.74,0,0,1-3.65,21.13Z" transform="translate(-30.76 -27.94)"/><path class="cls-1" d="M164.37,41.24l-.25.22c-1,.85-3.16,3.1-2.83,5.57v.17l.11.49.3-.28a10.12,10.12,0,0,0,2.77-5.73l.12-.67-.26.23Z" transform="translate(-30.76 -27.94)"/><path class="cls-1" d="M159.91,45.5l-.11.3a10.55,10.55,0,0,0-.58,2.42,7.44,7.44,0,0,0,1.25,5.66l.16.2.16.21.21-1a20.44,20.44,0,0,0-.75-7.46L160,45.2l-.11.3Z" transform="translate(-30.76 -27.94)"/><path class="cls-1" d="M158.28,52.16v.31c-.12,1.66,0,5.75,3.28,7.92l.39.25v-.46a20.65,20.65,0,0,0-3.23-7.85l-.38-.47v.3Z" transform="translate(-30.76 -27.94)"/><path class="cls-1" d="M158.85,59.49l.05.28c.49,2.35,2.72,6.16,6.16,7.26l.47.15-.17-.46a21.4,21.4,0,0,0-6.09-7.21l-.48-.3.06.28Z" transform="translate(-30.76 -27.94)"/><path class="cls-1" d="M165.77,44.78l-.28.16c-2.56,1.57-3.76,3.46-3.67,5.8v.54l.38-.31a15.49,15.49,0,0,0,3.63-5.75l.19-.61-.27.17Z" transform="translate(-30.76 -27.94)"/><path class="cls-1" d="M164.26,49.9l-.2.18c-.65.63-2.78,2.89-2.59,5.68a5.48,5.48,0,0,0,.29,1.38l.15.44.27-.38a16,16,0,0,0,2.29-7v-.53l-.19.18Z" transform="translate(-30.76 -27.94)"/><path class="cls-1" d="M164.37,54.75l-.15.22a8.25,8.25,0,0,0-1.58,4.72,5.73,5.73,0,0,0,1.06,3.17l.22.33.19-.35a16.73,16.73,0,0,0,.77-5.92,8,8,0,0,0-.23-1.89l-.14-.49-.14.21Z" transform="translate(-30.76 -27.94)"/><path class="cls-1" d="M165.61,59.94l-.07.22a9.24,9.24,0,0,0-.44,3,5.91,5.91,0,0,0,2.85,5l.31.19.07-.42V67.6a20.23,20.23,0,0,0-2.4-7.56l-.28-.37-.07.22Z" transform="translate(-30.76 -27.94)"/><path class="cls-1" d="M162,66.82l.13.22c1.38,2.32,3.72,5.3,8.11,4.54l.36-.07-.21-.3c-.81-1.22-6.13-4.22-8-4.53l-.52-.08.14.22Z" transform="translate(-30.76 -27.94)"/><path class="cls-1" d="M168.48,72.7h0l-.69.18.66.27c2.79,1.14,6.28,1.48,8.31.8a4.5,4.5,0,0,0,1.78-1.23c3.57.37,6.91,3.34,8.85,5.76l.11.12h.15a2.45,2.45,0,0,0,.7-.49l.13-.15-.12-.16A17.87,17.87,0,0,0,183,73.38c-2.86-1.39-7.91-2.48-14.53-.68Z" transform="translate(-30.76 -27.94)"/><path class="cls-1" d="M168.63,65.29v.23c.41,2.63,1.48,6.07,5.91,5.69h.29l-.07-.28c-.3-1.19-4.37-4.66-5.79-5.64l-.42-.22v.24Z" transform="translate(-30.76 -27.94)"/><path class="cls-1" d="M200,41l.12.67a10.12,10.12,0,0,0,2.77,5.73l.31.28.1-.49V47c.34-2.47-1.86-4.72-2.82-5.57l-.26-.22Z" transform="translate(-30.76 -27.94)"/><path class="cls-1" d="M204.59,45.2l-.24.59a20.44,20.44,0,0,0-.75,7.46l.21,1L204,54l.16-.2a7.44,7.44,0,0,0,1.25-5.66,11.21,11.21,0,0,0-.57-2.42l-.11-.3-.11-.3Z" transform="translate(-30.76 -27.94)"/><path class="cls-1" d="M206.3,51.86l-.38.47a21,21,0,0,0-3.23,7.85v.46l.39-.25c3.32-2.17,3.4-6.26,3.29-7.92v-.61Z" transform="translate(-30.76 -27.94)"/><path class="cls-1" d="M205.81,59.21l-.48.3a21.4,21.4,0,0,0-6.09,7.21l-.17.46.47-.15c3.44-1.1,5.67-4.91,6.16-7.26l.06-.28.05-.28Z" transform="translate(-30.76 -27.94)"/><path class="cls-1" d="M198.7,44.53l.17.61A15.36,15.36,0,0,0,202.39,51l.37.32v-.54c.14-2.33-1-4.25-3.56-5.87l-.2-.21-.26-.17Z" transform="translate(-30.76 -27.94)"/><path class="cls-1" d="M200.15,49.72v.53a16,16,0,0,0,2.29,7l.27.38.16-.44a5.46,5.46,0,0,0,.28-1.38c.19-2.79-1.94-5-2.59-5.68l-.19-.18-.2-.18Z" transform="translate(-30.76 -27.94)"/><path class="cls-1" d="M200.09,54.54,200,55a8,8,0,0,0-.23,1.89,16.73,16.73,0,0,0,.77,5.92l.19.35.23-.33a5.89,5.89,0,0,0,1-3.14A8.2,8.2,0,0,0,200.38,55l-.14-.22-.15-.21Z" transform="translate(-30.76 -27.94)"/><path class="cls-1" d="M198.92,59.72l-.28.37a20.23,20.23,0,0,0-2.4,7.56V68l.07.42.31-.19a5.92,5.92,0,0,0,2.86-5,9.53,9.53,0,0,0-.45-3L199,60l-.07-.22Z" transform="translate(-30.76 -27.94)"/><path class="cls-1" d="M202.74,66.6l-.51.08c-1.88.31-7.2,3.31-8,4.53l-.21.3.37.07c4.38.76,6.72-2.22,8.1-4.54l.14-.22.13-.22Z" transform="translate(-30.76 -27.94)"/><path class="cls-1" d="M181.59,73.38a17.79,17.79,0,0,0-5.35,4.37l-.12.16.14.15a2.41,2.41,0,0,0,.69.49h.15l.11-.12c1.94-2.42,5.28-5.39,8.85-5.76A4.37,4.37,0,0,0,187.85,74c2,.68,5.51.34,8.3-.8l.66-.27-.69-.18h0c-6.62-1.8-11.67-.71-14.53.68Z" transform="translate(-30.76 -27.94)"/><path class="cls-1" d="M196,65.05l-.42.22c-1.42,1-5.48,4.45-5.78,5.64l-.07.28H190c4.43.38,5.5-3.06,5.92-5.69V65Z" transform="translate(-30.76 -27.94)"/><path class="cls-1" d="M82.6,38h5.6v5.11H82.6ZM83,73.84V48.94h4.72v24.9Z" transform="translate(-30.76 -27.94)"/><path class="cls-1" d="M47.48,49h4.71V73.86H47.58V70.19h-.1c-1.89,3.13-5.06,4.42-8.54,4.42-5.2,0-8.18-4-8.18-9V49h4.72V63.7c0,4.31,1,7.48,5.5,7.48a5.9,5.9,0,0,0,5.55-3.56,18.54,18.54,0,0,0,.95-5.86Z" transform="translate(-30.76 -27.94)"/><path class="cls-1" d="M61.6,52.64h.1a8.61,8.61,0,0,1,7.53-4.42c1.74,0,9.42.45,9.42,8.43V73.86H74V58.19c0-4.11-1.74-6.35-5.71-6.35a6.48,6.48,0,0,0-4.56,1.84c-.69.69-2,1.78-2,6.64V73.86H57V49h4.6v3.64Z" transform="translate(-30.76 -27.94)"/><path class="cls-1" d="M107.48,57c-.24-3.1-1.72-5.27-5.07-5.27-4.48,0-6.21,3.89-6.21,9.71s1.73,9.71,6.21,9.71c3.1,0,5-2,5.27-5.57h4.68c-.4,5.57-4.53,9-10,9-7.93,0-11.09-5.61-11.09-12.91s3.65-13.3,11.49-13.3c5.22,0,9.16,3.3,9.4,8.67Z" transform="translate(-30.76 -27.94)"/><path class="cls-1" d="M119.4,62.27c-.35,4.34,1.43,8.83,6.2,8.83,3.65,0,5.47-1.43,6-5h4.94c-.75,5.63-5.08,8.43-11,8.43-7.94,0-11.1-5.61-11.1-12.91s3.66-13.3,11.49-13.3c7.39.15,10.88,4.83,10.88,11.68v2.31ZM131.91,59c.1-4.13-1.77-7.34-6.31-7.34-3.89,0-6.2,3.29-6.2,7.34Z" transform="translate(-30.76 -27.94)"/><path class="cls-1" d="M142.14,73.75V52.27h-4.26V49h4.26V43.7c.15-5.42,4.24-6.85,7.74-6.85a19.9,19.9,0,0,1,3.35.49v3.89c-.79,0-1.58-.15-2.37-.15-2.66,0-4.19.7-4,3.4V49h5.72v3.26h-5.72V73.75Z" transform="translate(-30.76 -27.94)"/><path class="cls-1" d="M237.78,83.17h-3V54.56c.05-1.92-.14-3.89-.24-5.56h3l.15,3.64.1.1a9.9,9.9,0,0,1,8.46-4.48c7.34,0,10.15,6.6,10.15,13,0,6.2-2.81,13.19-10,13.19a10.12,10.12,0,0,1-8.61-4.57h-.1V83.17Zm8.42-11.42c5.66,0,7.09-6.26,7.09-10.84S251.37,51,245.75,51s-8,4.78-8,9.8c0,5.61,2,11,8.42,11Z" transform="translate(-30.76 -27.94)"/><path class="cls-1" d="M282.62,61.36c0,6.5-3.65,13.09-11.52,13.09s-11.53-6.59-11.53-13.09,3.65-13.1,11.53-13.1S282.62,54.86,282.62,61.36ZM271.1,51c-6,0-8.33,5.81-8.33,10.39s2.37,10.39,8.33,10.39,8.32-5.81,8.32-10.39S277.05,51,271.1,51Z" transform="translate(-30.76 -27.94)"/><path class="cls-1" d="M303.41,49h2.95V68.15c0,1.92.15,3.89.25,5.57h-3.05l-.15-3.65-.1-.1a8.47,8.47,0,0,1-7.73,4.48c-8.07,0-8.71-7.13-8.71-10V49h2.95V65c0,4.29,2.46,6.8,6.5,6.8,4.87,0,7.09-4.09,7.09-8.52V49Z" transform="translate(-30.76 -27.94)"/><path class="cls-1" d="M315.2,73.72h-2.95V54.56c0-1.92-.15-3.89-.25-5.56h3.05l.15,3.64h.1a6.36,6.36,0,0,1,5.56-4.38c1,0,2,0,3,.05v2.86c-.6-.05-1.24-.2-1.83-.2-4.38,0-6.69,3.15-6.79,7.88V73.72Z" transform="translate(-30.76 -27.94)"/><path class="cls-1" d="M352,56.58c-.25-3.79-2.66-5.61-6.75-5.61-4.5,0-7.25,4.73-7.25,10.34s2.8,10.44,7.33,10.44c3.84,0,6.5-2.37,6.75-5.76h3.2c-.79,5.66-4,8.46-9.65,8.46-7.39,0-10.83-6.35-10.83-13.09s3.69-13.1,11-13.1c5.08,0,9.21,3.05,9.46,8.32Z" transform="translate(-30.76 -27.94)"/><path class="cls-1" d="M362.3,52.74h.1a8.49,8.49,0,0,1,7.73-4.48c8.07,0,8.71,7.14,8.71,10V73.72h-2.95v-16c0-4.28-2.46-6.79-6.5-6.79-4.88,0-7.09,4.09-7.09,8.52V73.72h-3V38.17h3Z" transform="translate(-30.76 -27.94)"/><path class="cls-1" d="M399,56.29c-.3-4-2.36-5.32-5.86-5.32-3.1,0-5.66.94-6.06,4.28H383.9c.74-5.07,4.53-7,9.26-7,5.46,0,8.86,2.51,8.76,8.17V68.15c-.05,1.92.15,3.89.25,5.57h-3.05l-.1-3.65h-.1l-.15.35c-1.08,2.07-4.38,4-7.73,4-4.58,0-8.22-2.8-8.22-7.63a7.64,7.64,0,0,1,5-7.14c3.3-1.42,7.58-.93,11.18-1.13Zm-7.39,15.46c6.45,0,7.68-5.32,7.39-10.49-4.19.15-13-.64-13,5.56,0,3.35,2.56,4.93,5.56,4.93Z" transform="translate(-30.76 -27.94)"/><path class="cls-1" d="M425,49h3.06c-.1,1.67-.25,3.64-.25,5.56V83.12h-2.95V69.88h-.1a10.1,10.1,0,0,1-8.62,4.57c-7.19,0-10-7-10-13.19,0-6.4,2.8-13,10.14-13a10,10,0,0,1,8.47,4.38v.15h.1v-.15Zm-8.12,2c-5.61,0-7.53,5.22-7.53,9.94s1.42,10.84,7.09,10.84c6.45,0,8.42-5.37,8.42-11,0-5-2.22-9.8-8-9.8Z" transform="translate(-30.76 -27.94)"/><path class="cls-1" d="M449.9,49h3V68.15c0,1.92.14,3.89.24,5.57h-3.05l-.15-3.65-.1-.1a8.47,8.47,0,0,1-7.73,4.48c-8.07,0-8.71-7.13-8.71-10V49h3V65c0,4.29,2.46,6.8,6.5,6.8,4.88,0,7.09-4.09,7.09-8.52V49Z" transform="translate(-30.76 -27.94)"/><path class="cls-1" d="M460.58,62.05c.09,5.27,2.51,9.7,8.56,9.7a7.36,7.36,0,0,0,7.14-5.91h3.1c-1.52,5.91-5.22,8.61-11.17,8.61-7.39,0-10.83-6.35-10.83-13.09s3.69-13.1,11-13.1c8.28,0,11.28,6.06,11.28,13.79Zm15.9-2.71c-.35-4.78-2.91-8.37-8-8.37-4.82,0-7.38,4-7.78,8.37Z" transform="translate(-30.76 -27.94)"/><path class="cls-1" d="M495.73,62.05c.1,5.27,2.51,9.7,8.57,9.7a7.37,7.37,0,0,0,7.14-5.91h3.1c-1.53,5.91-5.22,8.61-11.18,8.61-7.38,0-10.83-6.35-10.83-13.09s3.69-13.1,11-13.1c8.27,0,11.27,6.06,11.27,13.79Zm15.9-2.71c-.34-4.78-2.9-8.37-8-8.37-4.83,0-7.39,4-7.78,8.37Z" transform="translate(-30.76 -27.94)"/><path class="cls-1" d="M522.37,73.72h-3V54.56c0-1.92-.15-3.89-.25-5.56h3l.15,3.64.1.1a8.49,8.49,0,0,1,7.73-4.48c8.07,0,8.71,7.14,8.71,10V73.72H536v-16c0-4.28-2.46-6.79-6.5-6.79-4.87,0-7.09,4.09-7.09,8.52V73.72Z" transform="translate(-30.76 -27.94)"/><path class="cls-1" d="M546.39,73.72v-22h-5V49h5V43.73c0-4.23,1.73-6.15,6-6.15a13.42,13.42,0,0,1,2.81.54v2.36a11.13,11.13,0,0,0-1.82-.19c-4,0-4.14,2-4,5.56V49H555v2.71h-5.61v22Z" transform="translate(-30.76 -27.94)"/><path class="cls-1" d="M572.52,56.29c-.3-4-2.37-5.32-5.86-5.32-3.1,0-5.66.94-6.06,4.28h-3.15c.74-5.07,4.53-7,9.26-7,5.46,0,8.86,2.51,8.76,8.17V68.15c-.05,1.92.15,3.89.25,5.57h-3.06l-.09-3.65h-.1l-.15.35c-1.08,2.07-4.38,4-7.73,4-4.58,0-8.22-2.8-8.22-7.63a7.64,7.64,0,0,1,5-7.14c3.3-1.42,7.58-.93,11.18-1.13V56.29Zm-7.39,15.46c6.45,0,7.68-5.32,7.39-10.49-4.19.15-12.95-.64-12.95,5.56C559.57,70.17,562.13,71.75,565.13,71.75Z" transform="translate(-30.76 -27.94)"/><path class="cls-1" d="M584.11,73.72h-3V54.56c0-1.92-.15-3.89-.25-5.56H584l.15,3.64.1.1A8.49,8.49,0,0,1,592,48.26c8.07,0,8.71,7.14,8.71,10V73.72h-3v-16c0-4.28-2.46-6.79-6.5-6.79-4.87,0-7.09,4.09-7.09,8.52Z" transform="translate(-30.76 -27.94)"/><path class="cls-1" d="M608.11,51.71h-4.92V49h4.92V43.73l2.95-1.28V49h5.62v2.71h-5.62V68.25c0,2.27,1.14,3.5,3.4,3.5a8.51,8.51,0,0,0,2.56-.3V74a12.22,12.22,0,0,1-3,.44c-6.26,0-5.91-4-5.91-7.33V51.71Z" transform="translate(-30.76 -27.94)"/><polygon class="cls-1" points="189.59 61.25 188.64 61.25 188.64 0 189.59 0 189.59 61.25 189.59 61.25"/></svg>