<?xml version="1.0" encoding="UTF-8" standalone="no"?>
<!-- Created with Inkscape (http://www.inkscape.org/) -->

<svg
   width="256"
   height="256"
   viewBox="0 0 67.733334 67.733332"
   version="1.1"
   id="svg1"
   inkscape:version="1.3.2 (091e20e, 2023-11-25, custom)"
   sodipodi:docname="unicef_normandie.svg"
   xmlns:inkscape="http://www.inkscape.org/namespaces/inkscape"
   xmlns:sodipodi="http://sodipodi.sourceforge.net/DTD/sodipodi-0.dtd"
   xmlns="http://www.w3.org/2000/svg"
   xmlns:svg="http://www.w3.org/2000/svg">
  <sodipodi:namedview
     id="namedview1"
     pagecolor="#ffffff"
     bordercolor="#000000"
     borderopacity="0.25"
     inkscape:showpageshadow="2"
     inkscape:pageopacity="0.0"
     inkscape:pagecheckerboard="0"
     inkscape:deskcolor="#d1d1d1"
     inkscape:document-units="mm"
     inkscape:zoom="2.1942218"
     inkscape:cx="73.374533"
     inkscape:cy="119.17665"
     inkscape:window-width="1920"
     inkscape:window-height="991"
     inkscape:window-x="-9"
     inkscape:window-y="-9"
     inkscape:window-maximized="1"
     inkscape:current-layer="layer1" />
  <defs
     id="defs1" />
  <g
     inkscape:label="Calque 1"
     inkscape:groupmode="layer"
     id="layer1">
    <g
       id="g815"
       transform="matrix(0.24295116,0,0,0.24295116,-59.60647,-9.2212637)">
      <g
         id="g2"
         transform="matrix(4.2701574,0,0,4.2701574,241.37231,32.535907)">
        <text
           xml:space="preserve"
           style="font-style:normal;font-variant:normal;font-weight:normal;font-stretch:normal;font-size:11.9944px;font-family:'Yeseva One';-inkscape-font-specification:'Yeseva One, Normal';font-variant-ligatures:normal;font-variant-caps:normal;font-variant-numeric:normal;font-variant-east-asian:normal;fill:#ffabdf;fill-opacity:1;stroke-width:0.264583"
           x="11.084942"
           y="59.724903"
           id="text1"
           inkscape:label="unicef"><tspan
             sodipodi:role="line"
             id="tspan1"
             style="font-style:normal;font-variant:normal;font-weight:normal;font-stretch:normal;font-size:11.9944px;font-family:'Yeseva One';-inkscape-font-specification:'Yeseva One, Normal';font-variant-ligatures:normal;font-variant-caps:normal;font-variant-numeric:normal;font-variant-east-asian:normal;fill:#ffabdf;fill-opacity:1;stroke-width:0.264583"
             x="11.084942"
             y="59.724903">UNICEF</tspan></text>
        <text
           xml:space="preserve"
           style="font-style:normal;font-variant:normal;font-weight:normal;font-stretch:normal;font-size:4.58611px;font-family:'Yeseva One';-inkscape-font-specification:'Yeseva One, Normal';font-variant-ligatures:normal;font-variant-caps:normal;font-variant-numeric:normal;font-variant-east-asian:normal;fill:#ffabdf;fill-opacity:1;stroke-width:0.264583"
           x="19.082325"
           y="64.441422"
           id="text2"><tspan
             sodipodi:role="line"
             id="tspan2"
             style="font-style:normal;font-variant:normal;font-weight:normal;font-stretch:normal;font-size:4.58611px;font-family:'Yeseva One';-inkscape-font-specification:'Yeseva One, Normal';font-variant-ligatures:normal;font-variant-caps:normal;font-variant-numeric:normal;font-variant-east-asian:normal;fill:#ffabdf;fill-opacity:1;stroke-width:0.264583"
             x="19.082325"
             y="64.441422">NORMANDIE</tspan></text>
      </g>
      <path
         style="fill:#293271;fill-opacity:1"
         d="m 367.5682,224.06159 c -1.45963,-6.80603 -5.30977,-14.31652 -10.00116,-19.50933 -2.06168,-2.28203 -11.01608,-10.59595 -19.89868,-18.47537 -26.59548,-23.59184 -38.6164,-37.46416 -46.36564,-53.50659 -5.30362,-10.97951 -6.62468,-16.19196 -6.62468,-26.13866 0,-7.45853 3.2155,-19.3673 5.97428,-22.12608 2.23418,-2.23418 3.17852,0.69571 2.07526,6.43869 -3.82962,19.93501 11.56265,43.40515 39.62254,60.41646 3.73706,2.2656 7.01223,4.11927 7.27814,4.11927 0.26592,0 -1.08845,-3.28009 -3.00971,-7.28909 -5.1538,-10.75416 -4.51269,-21.96929 1.30365,-22.80538 1.90025,-0.27316 2.31965,0.28471 2.88852,3.84223 1.00547,6.28787 7.40433,15.2499 20.50901,28.72425 13.89643,14.28842 15.37193,16.28283 18.15222,24.53599 2.49928,7.419 2.68762,15.7339 0.5429,23.96803 -1.64269,6.30672 -6.32126,16.49815 -9.45816,20.60293 l -1.86514,2.44062 z m 28.74901,-1.39922 c -6.27521,-11.22112 -8.00531,-17.21001 -8.09998,-28.03872 -0.12424,-14.2103 2.63122,-19.27324 20.60859,-37.8667 13.90775,-14.38438 20.18482,-23.52546 20.18482,-29.39445 0,-1.66624 0.57782,-2.36209 1.96141,-2.36209 3.23714,0 5.10414,3.86893 5.10071,10.5701 -0.002,4.90606 -0.66737,7.40243 -3.43477,12.89657 -1.88742,3.74709 -3.2143,6.8129 -2.94862,6.8129 1.75316,0 15.78596,-9.27624 22.89114,-15.13196 18.12386,-14.93672 26.9286,-32.65855 24.18626,-48.68115 -1.88114,-10.9909 1.50604,-10.30843 5.83145,1.17496 2.73932,7.27254 2.95295,19.42374 0.48904,27.81665 -2.72829,9.29346 -9.95324,22.28903 -17.78961,31.9983 -6.90944,8.5608 -23.97576,25.25992 -43.35224,42.41947 -11.08967,9.82085 -16.50197,16.999 -18.79517,24.9274 -3.01373,10.41949 -2.68234,10.28085 -6.83303,2.85872 z m 67.52003,-97.1573 c 0.38509,-1.11025 1.41868,-5.59301 2.29686,-9.96168 1.63405,-8.12886 1.63873,-8.06175 -1.50456,-21.57954 -0.36277,-1.56009 -0.0663,-2.27096 0.94715,-2.27096 2.0674,0 4.39275,2.82377 6.79216,8.24805 2.346,5.3035 1.90457,7.43721 -3.83816,18.55223 -3.56826,6.90634 -5.82763,10.28178 -4.69345,7.0119 z m -160.89732,-2.87563 c -3.37479,-5.46053 -7.15937,-14.64367 -7.15937,-17.37195 0,-3.07076 2.50836,-9.2989 4.73686,-11.76136 2.19699,-2.42764 5.82498,-2.45506 4.88756,-0.0369 -3.7066,9.56135 -3.96573,16.4328 -1.0382,27.53053 0.72834,2.761 1.17531,5.02001 0.99327,5.02001 -0.18204,0 -1.27109,-1.52113 -2.42012,-3.38029 z m 158.26829,-5.19892 c -0.25938,-3.88588 -1.25123,-8.61114 -2.20412,-10.50059 -3.11094,-6.16858 -1.22548,-8.46201 3.13814,-3.81715 2.52354,2.68618 2.77857,8.10276 0.76919,16.33638 l -1.23161,5.04659 z m -155.11056,0.084 c -1.82606,-8.84268 -1.58529,-12.01786 1.10279,-14.54318 4.39212,-4.12618 6.21485,-1.93929 3.21643,3.85903 -0.83204,1.60897 -1.86676,6.0148 -2.29939,9.79074 l -0.7866,6.86533 z"
         id="path814"
         inkscape:label="hands" />
      <g
         id="g814">
        <path
           style="fill:#ffabdf;fill-opacity:1;stroke:none"
           d="m 352.58972,129.96389 v 1.00931 c 5.80822,5.68833 16.66325,17.52611 25.23298,18.2799 3.60837,0.31738 7.66061,-2.19874 11.1025,-3.14011 -6.05106,-15.64558 -21.84314,-29.3362 -36.33548,-16.1491 m 49.45663,9.08387 20.18638,-13.12115 v -2.01864 c -9.29314,-2.3151 -16.49572,7.73071 -20.18638,15.13979 z"
           id="path309" />
        <path
           style="fill:#ffabdf;fill-opacity:1;stroke:none"
           d="m 328.36607,96.656363 c 2.49989,9.066867 8.53807,19.614937 16.1491,25.232967 8.83981,-16.84297 1.3805,-25.221417 -16.1491,-25.232967 z"
           id="path79" />
        <path
           style="fill:#ffabdf;fill-opacity:1;stroke:none"
           d="m 326.34743,88.581813 c 17.09813,-3.17417 32.43224,-1.52196 48.44731,-10.12978 2.69041,-1.44606 11.5262,-8.98358 14.22469,-4.59492 2.66387,4.33239 -13.31782,16.84499 -15.07359,21.78993 -4.70932,13.263237 12.51487,32.349427 22.0446,39.363437 3.67898,-5.9895 17.32207,-23.9319 7.83312,-30.11367 -6.87626,-4.47968 -16.70682,1.19031 -20.95427,-7.231127 14.41929,-2.67684 28.89819,-1.09307 42.39139,-7.88219 1.85823,-0.93496 10.30776,-7.54972 11.76294,-3.79973 1.54136,3.9721 -7.8623,10.55204 -9.73497,13.70056 -3.56178,5.988387 -0.67354,11.509647 2.00931,17.158417 h 2.01864 c 8.49626,-11.86239 15.40791,-24.188047 12.65231,-39.363437 -5.45697,-30.05197 -39.6779,-30.01057 -58.07166,-13.12114 -16.91814,-35.55527 -73.03292,-12.23947 -59.54982,24.22365 m 23.22991,-22.77587 c 12.11577,-3.35544 18.1712,15.04726 6.02477,18.29702 -11.48402,3.07253 -17.34311,-15.16242 -6.02477,-18.29702 m 59.54983,13.27143 c 9.55902,-0.90262 10.44494,13.87228 0.99373,14.29171 -9.03828,0.40111 -9.81157,-13.45907 -0.99373,-14.29171 z"
           id="path1" />
      </g>
    </g>
  </g>
</svg>
