<svg xmlns="http://www.w3.org/2000/svg" fill="#009fdf" class="site-logo__svg" height="87.5" width="142" viewBox="0 0 469 289">
  <path d="M403.2 111.4c-5-2.7-5.1-6.5-4.8-8 .2-1.3 1.2-.7 1.8-.7 3.3 0 6.7-1 11-5.3a16.6 16.6 0 0 0-1.1-22.7c-8-7.6-16.3-6.3-21.7.5-1.1 1.4-3.9 2.5-6.2 2.4-3.5-.1-1.3 2.6-1.3 3.2 0 .5-.5 1-.8.8-1.2-.3-.7 1.4-.7 2 0 .5-.5.8-.8.8-1.4 0-1 1.3-1 1.6 0 .4 0 1-.6 1.3-.4.2-1 1.4-1 2.3 0 1.6 1.5 2.7 4 4.5 2.3 1.8 2.6 3.5 2.7 4.7 0 1.3.1 3.2.7 4.6.6 1.5.6 4.5-2.8 4.6-4 .2-11.4 3.4-12 3.6-2.3.9-5.3 1.2-7.7.6l-3.7-3c-.5-1.7.4-3.4 1.2-4.6 1.4 1.4 3.4 1.3 4.5 1.3 1.2 0 6.8-.8 7.6-1 .8-.3 1.1-.3 1.6 0 2.1.7 5 1 6.3-3.2 1.2-4-1.7-3-2-2.7-.4.1-.9 0-.7-.3.5-1-.2-.9-.7-1-1.1 0-2.6 1.2-3.1 1.6-.5.4-1 .4-1.2.3-1.5-.7-6 .4-7.4-2.1.1-.7-1.2-10.6-1.8-12.3-.2-.4-.3-1 .2-1.7 1.1-1.7 4.3.2 6 .1 2 0 2.4-.9 3-1.6.5-.7.9-.3 1.2-.5.4-.2 0-.7.1-1 .2-.2.3 0 .7-.4.3-.3 0-1 .1-1.2.5-.8 1.9-.2 1-2.2-.4-1 .2-2.3.9-3 1-1.4 4.8-6.8-2-12.4-6.5-5.4-13-5-17.3-.4-4.2 4.6-2 11.3-1.6 13 .4 1.8-.9 3.4-2.3 4.1a33 33 0 0 0-5.8 4c.3-14.3 9-27 22.4-32.3.6.7 1.2 1.4 2 2-1.6 1-4.8 4-4.8 4l.8.2 1 .2 4.1-3.4c1 .8 2.2 1.5 3.4 2l-2.3 4.2a17.5 17.5 0 0 0 1.3.8l2.5-4.4c1.5.5 3 .7 4.6.8v6.2l-4-.2-.6-.1.3.5c.3.3.4.7.6 1v.1h.2l3.5.2V75h1.6v-2.6c2.2 0 4.1-.2 6.4-.4h.1l2-1.8h-1c-2.5.4-4.6.5-6.5.6h-1v-7a36 36 0 0 0 8.3-1.2 125 125 0 0 1 2.2 6.3l1.5-.4s-1.4-4.5-2.2-6.3c2.3-.7 4.6-1.7 6.7-2.9 1.7 2.2 3.2 4.5 4.4 6.9l-3 1.2c1.5.2 2.8.6 2.8.6l.9-.4.4 1 2 .8-.2-.5-.8-2c2-1 4.2-2.2 6.2-3.6a35.7 35.7 0 0 1-8.3 48zm-25.6-64a32 32 0 0 0-6.3 3.4l-1.7-1.7a37 37 0 0 1 8-1.8zm-2.2 6c-1-.5-2-1-2.8-1.6 2-1.4 4.1-2.5 6.4-3.4a54.7 54.7 0 0 0-3.6 5zm5.3-4.7v5.9c-1.3 0-2.6-.3-3.8-.7a55 55 0 0 1 3.8-5.2zm1.6 7.4c1.6 0 3.1-.3 4.7-.8 1.1 1.9 2.1 3.8 3 5.9-2.5.6-5.1 1-7.7 1v-6zm0-7.5L386 54a16 16 0 0 1-3.8.7v-6zm8.2 3.2c-1 .6-1.9 1.2-2.9 1.6a42 42 0 0 0-3.6-5c2.3.9 4.4 2 6.5 3.4zm2.9-2.7c-.5.6-1 1.2-1.7 1.7a38 38 0 0 0-6.2-3.5c2.7.3 5.3 1 7.9 1.8zm4.4 9c-2 1.1-4.1 2-6.3 2.7-.9-2.1-2-4.1-3.1-6.1a17 17 0 0 0 3.4-2c2.2 1.6 4.2 3.4 6 5.5zm-2.9-8.4c3 1.2 5.8 2.8 8.4 4.8l-4.1 2.9c-1.9-2.1-4-4-6.2-5.7l2-2zM410.6 62a50 50 0 0 1-6 3.4 39 39 0 0 0-4.5-7c1.6-.9 3-2 4.4-3a32 32 0 0 1 6.1 6.6zm-29.1-16.5a37.4 37.4 0 1 0 0 74.7 37.4 37.4 0 0 0 0-74.7zm-40.7 10-.6.5c-2.2 2-7.2 7-6.4 12.7v.4l.3 1 .7-.6c3-2.8 5.4-7.5 6.3-13l.3-1.5-.6.5zm-10.2 9.7-.2.7c-.4.9-1 2.9-1.3 5.5-.5 3.7-.4 9 2.8 12.8l.4.5.3.5.5-2.4c.6-4.2-.1-13-1.7-17l-.5-1.3-.3.7zM327 80.3l-.1.7c-.3 3.8-.1 13.1 7.4 18l1 .6-.1-1a46.8 46.8 0 0 0-7.4-17.9l-.8-1v.6zm1.2 16.7.1.6c1.1 5.4 6.2 14 14 16.6l1.1.3-.4-1c-1.4-4-9-13.4-13.8-16.4l-1.1-.7.1.6z"/>
  <path d="m344 63.5-.7.4c-5.8 3.6-8.5 7.9-8.3 13.2v1.2l.9-.7a35 35 0 0 0 8.3-13l.4-1.4-.6.3zm-3.5 11.7-.4.4c-1.5 1.4-6.3 6.6-6 13 .1 1 .4 2 .7 3l.4 1 .6-.8A36.3 36.3 0 0 0 341 76v-1.2l-.5.4zm.3 11-.4.5a18.8 18.8 0 0 0-3.6 10.8c.1 2.5 1 5 2.4 7.2l.6.7.4-.8a38.5 38.5 0 0 0 1.2-17.7l-.3-1.2-.3.5zm2.8 11.8-.2.5a21 21 0 0 0-1 6.9c.2 4.9 2.4 8.8 6.5 11.4l.7.5.2-1v-.7c0-4-3-14.1-5.4-17.2l-.6-.9-.2.5zm-8.2 15.7.3.5c3.1 5.3 8.5 12 18.4 10.3l.9-.1-.5-.7c-1.9-2.8-14-9.6-18.3-10.3l-1.1-.2.3.5zm14.7 13.3-1.5.5 1.5.6a30.9 30.9 0 0 0 18.9 1.8 10 10 0 0 0 4-2.8c8.1.8 15.7 7.6 20.2 13.1l.2.3.3-.1c.5-.2 1.3-.8 1.6-1.1l.3-.4-.2-.4a40 40 0 0 0-12.2-9.9c-6.5-3.2-18-5.6-33-1.5zm.4-16.8v.5c1 6 3.4 13.8 13.5 13h.7l-.2-.7a53 53 0 0 0-13.2-12.8l-1-.5.2.5zM421.8 55l.2 1.5c1 5.5 3.3 10.2 6.3 13l.7.7.3-1.1v-.4c.8-5.6-4.2-10.8-6.4-12.7l-.5-.5-.6-.5zm10.5 9.5-.6 1.3c-1.5 4-2.2 12.8-1.7 17l.5 2.4.4-.5.3-.5c3.2-3.9 3.4-9.1 2.9-12.8a26 26 0 0 0-1.3-5.5l-.3-.7-.2-.7zm3.9 15.2-1 1c-3 3.8-7.1 14.3-7.2 17.9v1l.8-.5c7.5-5 7.7-14.3 7.5-18v-.8l-.1-.6zM435 96.4l-1 .7a48.7 48.7 0 0 0-13.9 16.4l-.4 1 1-.3c8-2.5 13-11.2 14-16.6l.2-.6.2-.6zM418.9 63l.4 1.4a34 34 0 0 0 8 13.2l.8.7v-1.2c.4-5.3-2.3-9.7-8-13.3l-.6-.4-.6-.4zm3.3 11.8V76a36 36 0 0 0 5.1 15.8l.7.9.3-1c.4-1.1.6-2.2.7-3.2.4-6.3-4.5-11.5-6-12.9l-.4-.4-.4-.4zm-.2 10.9-.3 1.2a38.7 38.7 0 0 0 1.2 17.8l.5.7.5-.7a14 14 0 0 0 2.4-7.2c0-3.4-1.2-7.2-3.6-10.8l-.3-.5-.4-.5zm-2.6 11.8-.7.9a45.5 45.5 0 0 0-5.4 18l.2.9.7-.5a13 13 0 0 0 6.5-11.4c0-2.2-.3-4.5-1-6.9l-.2-.5-.1-.5zm8.6 15.7-1.1.2c-4.3.7-16.4 7.5-18.2 10.3l-.5.7.8.1c10 1.7 15.3-5 18.5-10.3l.3-.5.3-.5z"/>
  <path id="text" d="M380 128.6a40 40 0 0 0-12.2 10l-.3.3.3.4c.3.3 1.1.9 1.6 1l.3.2.3-.3c4.4-5.5 12-12.3 20.1-13 1.3 1.2 2.3 2.1 4 2.7 4.7 1.6 12.6.8 19-1.8l1.5-.6-1.6-.4a47.3 47.3 0 0 0-33 1.5zm32.8-18.9-1 .5a52.9 52.9 0 0 0-13.2 12.8l-.1.6h.6c10.1 1 12.5-6.9 13.5-12.9v-.5zM155.8 73h10.7v56.7h-10.7zm-1-24.8h12.7v11.6h-12.7ZM74.9 73h10.7v56.7H75v-8.3h-.2c-4.3 7-11.5 10-19.4 10-11.9 0-18.6-9-18.6-20.4V73h10.7v33.6c0 9.8 2.2 17 12.5 17 4.4 0 10.4-2.2 12.6-8.1a42 42 0 0 0 2.2-13.3V73Zm32.1 8.4h.2c3.6-7 11.5-10 17.2-10 4 0 21.4 1 21.4 19.2v39.1h-10.7V94.1c0-9.4-4-14.5-13-14.5 0 0-5.9-.3-10.4 4.2-1.5 1.6-4.5 4-4.5 15.1v30.8H96.5V73.1H107Zm104.4 9.8c-.6-7-4-12-11.6-12-10.2 0-14 8.9-14 22.1 0 13.3 3.8 22.1 14 22.1 7 0 11.5-4.6 12-12.7h10.7c-1 12.7-10.3 20.4-22.8 20.4-18 0-25.2-12.7-25.2-29.3 0-16.5 8.3-30.3 26.1-30.3 12 0 20.9 7.5 21.4 19.7zM267 96c.2-9.5-4.1-16.7-14.4-16.7-8.9 0-14.1 7.4-14.1 16.7h28.4zm-28.5 7.3c-.8 9.9 3.2 20.1 14 20.1 8.4 0 12.5-3.2 13.8-11.4h11.2c-1.7 12.8-11.6 19.1-25 19.1-18 0-25.2-12.7-25.2-29.3 0-16.5 8.3-30.3 26-30.3 16.9.4 24.8 11 24.8 26.6v5.2zm51.7 26.2v-49h-9.7v-7.3h9.7V61c.4-12.3 9.6-15.6 17.6-15.6 2.6 0 5 .7 7.6 1.1v8.9c-1.8-.1-3.6-.4-5.4-.4-6 0-9.5 1.6-9.1 7.8v10.3h13v7.4h-13v48.9h-10.7zM36.9 168h396.9v2.2h-397Zm10.7 66.3c5.4 0 6.8-6 6.8-10.4 0-4.5-2-9.5-7.2-9.5-5.5 0-7.6 4.6-7.6 9.4 0 5.3 1.8 10.5 8 10.5zm-8 10.9h-3v-27.3l-.1-5.3h3v3.4l.2.1a9.5 9.5 0 0 1 8-4.3c7 0 9.7 6.3 9.7 12.5 0 5.9-2.7 12.6-9.5 12.6a9.6 9.6 0 0 1-8.2-4.4h-.1zm33-30.8c-5.6 0-8 5.6-8 10 0 4.3 2.4 9.9 8 9.9 5.7 0 8-5.6 8-10 0-4.3-2.3-9.9-8-9.9zm11 10c0 6.2-3.4 12.5-11 12.5-7.5 0-11-6.3-11-12.5 0-6.3 3.5-12.6 11-12.6 7.6 0 11 6.3 11 12.6zm21.7-11.8h2.8v18.2l.2 5.3h-3v-3.4l-.1-.1a8.1 8.1 0 0 1-7.4 4.3c-7.7 0-8.3-6.9-8.3-9.6v-14.7h2.8v15.2c0 4 2.3 6.5 6.2 6.5 4.6 0 6.8-4 6.8-8.2zm13 23.5h-2.7V218l-.2-5.3h2.9v3.4h.2a6 6 0 0 1 5.3-4.2l2.8.1v2.7l-1.7-.2c-4.2 0-6.4 3-6.5 7.6V236zm40.9-16.3c-.2-3.6-2.5-5.4-6.4-5.4-4.3 0-7 4.5-7 9.9s2.7 10 7 10c3.6 0 6.2-2.3 6.4-5.5h3c-.7 5.4-3.8 8-9.1 8-7 0-10.4-6-10.4-12.4s3.5-12.6 10.6-12.6c4.8 0 8.7 3 9 8h-3zm9-3.7a8.4 8.4 0 0 1 7.6-4.3c7.7 0 8.3 6.9 8.3 9.6V236h-2.8v-15c0-4-2.4-6.5-6.2-6.5-4.7 0-6.8 4-6.8 8.2V236h-2.8v-33.9h2.8zm29.7 18.2c6.2 0 7.3-5.1 7-10-4 .1-12.3-.7-12.3 5.3 0 3.2 2.4 4.7 5.3 4.7zm7-14.8c-.2-3.8-2.2-5-5.5-5-3 0-5.4.8-5.8 4h-3c.7-4.8 4.3-6.7 8.8-6.7 5.2 0 8.5 2.4 8.4 7.9v11.1l.2 5.3h-3v-3.4h-.1l-.1.3c-1 2-4.2 3.9-7.4 3.9-4.4 0-8-2.7-8-7.3 0-3.2 2-5.7 4.9-6.8 3-1.4 7.2-1 10.7-1.1v-2.2zm18.9-5.1c-5.4 0-7.2 5-7.2 9.5 0 4.4 1.3 10.4 6.7 10.4 6.2 0 8-5.2 8-10.5 0-4.8-2-9.4-7.5-9.4zm7.7-1.8h3c-.2 1.6-.3 3.4-.3 5.3V245h-2.8v-12.6h-.1a9.6 9.6 0 0 1-8.3 4.4c-6.8 0-9.5-6.7-9.5-12.6 0-6.2 2.7-12.5 9.7-12.5 3 0 6.4 1.6 8 4.2v.2h.2v-3.6zm25.5 0h2.8v18.2c0 1.9.2 3.8.3 5.3h-3v-3.4l-.2-.1a8.1 8.1 0 0 1-7.3 4.3c-7.8 0-8.4-6.9-8.4-9.6v-14.7h2.9v15.2c0 4 2.3 6.5 6.2 6.5 4.6 0 6.7-4 6.7-8.2zm27.2 9.8c-.3-4.5-2.8-8-7.7-8-4.6 0-7 3.9-7.4 8h15zM269 225c0 5 2.4 9.3 8.2 9.3a7 7 0 0 0 6.8-5.7h3c-1.5 5.7-5 8.3-10.7 8.3-7 0-10.3-6.1-10.3-12.5s3.5-12.6 10.5-12.6c7.9 0 10.7 5.8 10.7 13.2zm54.4-2.6c-.3-4.5-2.8-8-7.7-8-4.6 0-7 3.9-7.4 8h15zm-15.2 2.6c0 5 2.4 9.3 8.2 9.3a7 7 0 0 0 6.8-5.7h3c-1.5 5.7-5 8.3-10.7 8.3-7 0-10.3-6.1-10.3-12.5s3.5-12.6 10.5-12.6c7.9 0 10.7 5.8 10.7 13.2zm27.3 11.1h-2.8V218l-.2-5.3h2.9v3.4l.2.1a8.2 8.2 0 0 1 7.4-4.3c7.7 0 8.3 6.9 8.3 9.6V236h-2.8v-15c0-4-2.4-6.5-6.2-6.5-4.7 0-6.8 4-6.8 8.2V236zm25.4 0v-21h-5v-2.5h4.9v-5c0-4.1 1.6-6 5.6-6 1 0 1.9.4 2.7.6v2.2l-1.7-.2c-4 0-4 2-3.8 5.3v3h5.3v2.6h-5.3v21h-2.8zm18.9-1.8c6.2 0 7.4-5.1 7-10-4 .1-12.3-.7-12.3 5.3 0 3.2 2.5 4.7 5.3 4.7zm7-14.8c-.2-3.8-2.2-5-5.5-5-3 0-5.4.8-5.8 4h-3c.7-4.8 4.3-6.7 8.8-6.7 5.3 0 8.5 2.4 8.4 7.9v11.1l.2 5.3h-3v-3.4h-.1l-.1.3c-1 2-4.2 3.9-7.4 3.9-4.3 0-7.8-2.7-7.8-7.3 0-3.2 1.9-5.7 4.7-6.8 3.2-1.4 7.3-1 10.7-1.1v-2.2zm13 16.6H397V218l-.2-5.3h3v3.4l.2.1a8 8 0 0 1 7.3-4.3c7.7 0 8.4 6.9 8.4 9.6V236h-3v-15c0-4-2.2-6.5-6.1-6.5-4.6 0-6.7 4-6.7 8.2V236zm25.4-21h-4.7v-2.5h4.7v-5l2.8-1.3v6.3h5.4v2.5H428V231c0 2.2 1 3.4 3.3 3.4.8 0 1.6 0 2.4-.3v2.4c-1 .3-2 .5-3 .5-6 0-5.5-3.9-5.5-7v-15z"/>
</svg>